<?xml version="1.0" encoding="utf-8"?>
<!-- Generator: Adobe Illustrator 23.0.3, SVG Export Plug-In . SVG Version: 6.00 Build 0)  -->
<svg version="1.1" id="Calque_1" xmlns="http://www.w3.org/2000/svg" xmlns:xlink="http://www.w3.org/1999/xlink" x="0px" y="0px"
	 viewBox="0 0 841.9 1190.7" style="enable-background:new 0 0 841.9 1190.7;" xml:space="preserve">
<style type="text/css">
	.st0{fill-rule:evenodd;clip-rule:evenodd;fill:none;}
	.st1{fill-rule:evenodd;clip-rule:evenodd;fill:#646467;}
	.st2{fill:#646467;}
	.st3{fill-rule:evenodd;clip-rule:evenodd;fill:#646467;stroke:#646467;stroke-miterlimit:10;}
	.st4{fill:#646467;stroke:#646467;stroke-miterlimit:10;}
</style>
<path class="st0" d="M137.5,333.8h566.9v503.9H137.5V333.8z"/>
<path class="st1" d="M570.8,590.7l8.2,18.7l0.4-0.3l6.1,14.8l4.1-1.2l0.2-15.8l6.1,13.9l4.2-1.2l-3.6-25.6l11.2,23.3l3.3-1
	l-3.2-17.2l7.4,16l3.8-1.2l-3.2-13.1l8.3,11.6l6.3-2l-5.5-21.8l10.1,20.4l3.8-1.2l-6-25.5l11.3,23.9l4.4-1.3l-6-24.7l11.1,23.2
	l8.5-2.7l-5.2-17.8l11.3,15.9l6.5-2l-3.3-16.5l9.3,14.8l2.2-0.7l-1.3-15l7.9,13l6.6-2L683,556.7L570.8,590.7L570.8,590.7z
	 M186.1,676.3c2.9,1.2,10.6,3.4,14,3.7c0,0,4.3-23.4,4.4-23.4c-1.9,0-7.9,0.5-13.8-5.2L186.1,676.3L186.1,676.3z M224.2,563.9
	l38.4-183.6c-1.8,0.4-17.5,4.4-21.4,6l-39.7,210.5L224.2,563.9L224.2,563.9z"/>
<path class="st1" d="M289.5,676.3l22.8-301.8c-2.2,0.1-17.5,1.1-19.5,1.2l-17.8,259.5L289.5,676.3z"/>
<path class="st1" d="M351.5,711.5l29.1-335.6c0,0-17.9-0.8-20-0.7l-33.3,336.4L351.5,711.5L351.5,711.5z"/>
<path class="st1" d="M417.2,378.5l-5.6,249c2.3,0.4,16.4,0.3,18.4,0.3l3-247.6C433,380.1,418.6,378.5,417.2,378.5L417.2,378.5z"/>
<path class="st1" d="M461.9,640.9l-0.4-256.8c4.9,0.6,24.3,4.8,24.3,4.8l-9.6,293.5L461.9,640.9L461.9,640.9z"/>
<path class="st1" d="M538.1,711.4l15.5-301.8c-3.8-2-15.4-6.6-21.5-8.5l-15.3,310.4L538.1,711.4z"/>
<path class="st1" d="M228.9,744.4c10.3,0,22.8,2.7,22.8,10.6c0,3.6-2.9,7.2-7.4,7.2c-4,0-8.3-3.2-14.9-3.2
	c-13.9,0-19.4,10-19.4,20.3c0,10.6,6.1,19.7,17.9,19.7c10.7,0,12.4-3.1,16.8-3.1c6.8,0,7.6,5.1,7.6,7c0,8.4-14.3,11.3-23.6,11.3
	c-23.6,0-37-15.8-37-34.9C191.5,759.1,206.2,744.4,228.9,744.4L228.9,744.4z M274.9,805.9c-1.6,4.3-3.4,7.4-9,7.4
	c-4.9,0-8.3-2.4-8.3-6.2c0-2.2,0.4-4,2.6-9.4l16.5-39.6c3.1-7.4,5.7-13.8,14.3-13.8c8.8,0,11.4,6.4,14.5,13.8l16.5,39.6
	c2.2,5.3,2.6,7.1,2.6,9.4c0,3.7-3.4,6.2-8.3,6.2c-5.6,0-7.4-3.2-9-7.4l-2.1-6h-28.1L274.9,805.9L274.9,805.9z M300.1,785.8h-18
	l9.2-24.5h0.2L300.1,785.8L300.1,785.8z M360.2,745.9h-21.1c-4.4,0-8.5,2.8-8.5,7.6v51.7c0,5.3,3.6,8.1,8.5,8.1s8.5-2.8,8.5-8.1v-14
	h13c16.3,0,25.2-9.6,25.2-22.7C386,753.5,373.5,745.9,360.2,745.9z M347.8,759.4h9.2c6.8,0,11.3,3.2,11.3,9.2c0,4.7-4,9.1-11.3,9.1
	h-9.2V759.4L347.8,759.4z M430.3,805.9l-2.1-6h-28.1l-2.1,6c-1.6,4.3-3.4,7.4-9,7.4c-4.9,0-8.3-2.4-8.3-6.2c0-2.2,0.4-4,2.6-9.4
	l16.5-39.6c3-7.4,5.7-13.8,14.3-13.8c8.8,0,11.4,6.4,14.5,13.8l16.5,39.6c2.2,5.3,2.5,7.1,2.5,9.4c0,3.7-3.4,6.2-8.3,6.2
	C433.7,813.4,431.9,810.2,430.3,805.9L430.3,805.9z M423.2,785.8h-18l9.2-24.5h0.2L423.2,785.8z M505.4,799.7c2.3,2.2,3.6,4,3.6,6.6
	c0,2.1-2.2,7-8.8,7c-4.4,0-6-1.4-8.2-3.7L471,786h-0.2v19.3c0,5.3-3.6,8.1-8.5,8.1s-8.5-2.8-8.5-8.1v-51.7c0-4.9,4.1-7.6,8.5-7.6
	h20.6c15.2,0,25.2,8.3,25.2,20.8c0,9.9-6.8,17-17.6,18.8L505.4,799.7L505.4,799.7z M470.8,760h11.3c4.9,0,8.8,2.8,8.8,7.2
	c0,4.3-3.2,7.6-8.8,7.6h-11.3V760z M549.9,744.4c-22.3,0-37,13.7-37,34.9c0,21.2,14.7,34.9,37,34.9s37-13.7,37-34.9
	C587,758.1,572.2,744.4,549.9,744.4z M549.9,758.5c13.2,0,18.6,10.2,18.6,20.9c0,10.6-5.4,20.9-18.6,20.9
	c-13.2,0-18.6-10.2-18.6-20.9C531.3,768.8,536.8,758.5,549.9,758.5z M595.4,753.4c0-5.3,3.6-8.1,8.5-8.1s8.5,2.8,8.5,8.1v45.3h18.4
	c5.4,0,8.5,2.7,8.5,7c0,4.3-3.2,7-8.5,7H604c-4.4,0-8.5-2.8-8.5-7.6L595.4,753.4L595.4,753.4z"/>
<path class="st2" d="M145.9,727.2h535.6v2.6H145.9V727.2z"/>
<path class="st1" d="M233.6,648.9l-1.5,14.4l13,10.6c0,0-16.6,6.3-31.5,6.8c-7.3,0.3-13.8-0.7-13.8-0.7l4.4-23.4
	C214.4,656.9,225.9,652.7,233.6,648.9L233.6,648.9z M191.3,651.9l-4.5,24.6c0,0-9.2-2.7-17.4-12c-15-17.9-20.3-52.6-20.3-52.6
	s-9.7-45.4,4.4-112.9c2.3-9.1,6.3-41.9,32.7-73.7c23-31.6,55.6-39.4,55.6-39.4L202,595.7c0,0-12.2,19.3-15.4,36.6
	C184.7,645,191.3,651.9,191.3,651.9L191.3,651.9z M262.2,380.4c5.9-1.6,28.3-4.5,31.1-4.7l-17.8,260.5l-34.1-95.3l-17.7,23.9
	L262.2,380.4L262.2,380.4z M311.8,374.5c11.6-0.9,46.6,0.4,49.3,0.5l-33.3,336.4h-25.3l-13.2-36.1L311.8,374.5L311.8,374.5z
	 M380.1,375.8c5.4-0.1,34.5,2.3,37.7,2.7c-0.4,0.1-5.5,249-5.5,249c-2.5,0.2-18.9-2-18.9-2l-6.8,86h-35.3L380.1,375.8L380.1,375.8z
	 M432.6,380.1c6.3,0.6,28.8,3.7,29.5,4l0.4,258.5l-6.9-18c-5.4,1.4-20.2,3.2-26,3L432.6,380.1L432.6,380.1z M485.4,388.7
	c8.9,1.2,41.2,10.2,47.3,12.6l-15.2,310.1h-30.6l-11.1-30.5L485.4,388.7L485.4,388.7z M683.2,557l-12.8-32.4L624,538.3
	c0,0-26.7-76.1-36.9-94.6c-14.8-27.6-34-34.3-34-34.3l-15.5,302H571l8.3-102.3l-7.7-18L683.2,557L683.2,557z M588.5,485l20.1,57.9
	l-24.9,6.9L588.5,485L588.5,485z"/>
<path class="st0" d="M137.5,333.8h566.9v503.9H137.5V333.8z"/>
<path class="st1" d="M570.8,590.7l8.2,18.7l0.4-0.3l6.1,14.8l4.1-1.2l0.2-15.8l6.1,13.9l4.2-1.2l-3.6-25.6l11.2,23.3l3.3-1
	l-3.2-17.2l7.4,16l3.8-1.2l-3.2-13.1l8.3,11.6l6.3-2l-5.5-21.8l10.1,20.4l3.8-1.2l-6-25.5l11.3,23.9l4.4-1.3l-6-24.7l11.1,23.2
	l8.5-2.7l-5.2-17.8l11.3,15.9l6.5-2l-3.3-16.5l9.3,14.8l2.2-0.7l-1.3-15l7.9,13l6.6-2L683,556.7L570.8,590.7L570.8,590.7z
	 M186.1,676.3c2.9,1.2,10.6,3.4,14,3.7c0,0,4.3-23.4,4.4-23.4c-1.9,0-7.9,0.5-13.8-5.2L186.1,676.3L186.1,676.3z M224.2,563.9
	l38.4-183.6c-1.8,0.4-17.5,4.4-21.4,6l-39.7,210.5L224.2,563.9L224.2,563.9z"/>
<path class="st1" d="M289.5,676.3l22.8-301.8c-2.2,0.1-17.5,1.1-19.5,1.2l-17.8,259.5L289.5,676.3z"/>
<path class="st1" d="M351.5,711.5l29.1-335.6c0,0-17.9-0.8-20-0.7l-33.3,336.4L351.5,711.5L351.5,711.5z"/>
<path class="st1" d="M417.2,378.5l-5.6,249c2.3,0.4,16.4,0.3,18.4,0.3l3-247.6C433,380.1,418.6,378.5,417.2,378.5L417.2,378.5z"/>
<path class="st1" d="M461.9,640.9l-0.4-256.8c4.9,0.6,24.3,4.8,24.3,4.8l-9.6,293.5L461.9,640.9L461.9,640.9z"/>
<path class="st1" d="M538.1,711.4l15.5-301.8c-3.8-2-15.4-6.6-21.5-8.5l-15.3,310.4L538.1,711.4z"/>
<path class="st1" d="M228.9,744.4c10.3,0,22.8,2.7,22.8,10.6c0,3.6-2.9,7.2-7.4,7.2c-4,0-8.3-3.2-14.9-3.2
	c-13.9,0-19.4,10-19.4,20.3c0,10.6,6.1,19.7,17.9,19.7c10.7,0,12.4-3.1,16.8-3.1c6.8,0,7.6,5.1,7.6,7c0,8.4-14.3,11.3-23.6,11.3
	c-23.6,0-37-15.8-37-34.9C191.5,759.1,206.2,744.4,228.9,744.4L228.9,744.4z M274.9,805.9c-1.6,4.3-3.4,7.4-9,7.4
	c-4.9,0-8.3-2.4-8.3-6.2c0-2.2,0.4-4,2.6-9.4l16.5-39.6c3.1-7.4,5.7-13.8,14.3-13.8c8.8,0,11.4,6.4,14.5,13.8l16.5,39.6
	c2.2,5.3,2.6,7.1,2.6,9.4c0,3.7-3.4,6.2-8.3,6.2c-5.6,0-7.4-3.2-9-7.4l-2.1-6h-28.1L274.9,805.9L274.9,805.9z M300.1,785.8h-18
	l9.2-24.5h0.2L300.1,785.8L300.1,785.8z M360.2,745.9h-21.1c-4.4,0-8.5,2.8-8.5,7.6v51.7c0,5.3,3.6,8.1,8.5,8.1s8.5-2.8,8.5-8.1v-14
	h13c16.3,0,25.2-9.6,25.2-22.7C386,753.5,373.5,745.9,360.2,745.9z M347.8,759.4h9.2c6.8,0,11.3,3.2,11.3,9.2c0,4.7-4,9.1-11.3,9.1
	h-9.2V759.4L347.8,759.4z M430.3,805.9l-2.1-6h-28.1l-2.1,6c-1.6,4.3-3.4,7.4-9,7.4c-4.9,0-8.3-2.4-8.3-6.2c0-2.2,0.4-4,2.6-9.4
	l16.5-39.6c3-7.4,5.7-13.8,14.3-13.8c8.8,0,11.4,6.4,14.5,13.8l16.5,39.6c2.2,5.3,2.5,7.1,2.5,9.4c0,3.7-3.4,6.2-8.3,6.2
	C433.7,813.4,431.9,810.2,430.3,805.9L430.3,805.9z M423.2,785.8h-18l9.2-24.5h0.2L423.2,785.8z M505.4,799.7c2.3,2.2,3.6,4,3.6,6.6
	c0,2.1-2.2,7-8.8,7c-4.4,0-6-1.4-8.2-3.7L471,786h-0.2v19.3c0,5.3-3.6,8.1-8.5,8.1s-8.5-2.8-8.5-8.1v-51.7c0-4.9,4.1-7.6,8.5-7.6
	h20.6c15.2,0,25.2,8.3,25.2,20.8c0,9.9-6.8,17-17.6,18.8L505.4,799.7L505.4,799.7z M470.8,760h11.3c4.9,0,8.8,2.8,8.8,7.2
	c0,4.3-3.2,7.6-8.8,7.6h-11.3V760z M549.9,744.4c-22.3,0-37,13.7-37,34.9c0,21.2,14.7,34.9,37,34.9s37-13.7,37-34.9
	C587,758.1,572.2,744.4,549.9,744.4z M549.9,758.5c13.2,0,18.6,10.2,18.6,20.9c0,10.6-5.4,20.9-18.6,20.9
	c-13.2,0-18.6-10.2-18.6-20.9C531.3,768.8,536.8,758.5,549.9,758.5z M595.4,753.4c0-5.3,3.6-8.1,8.5-8.1s8.5,2.8,8.5,8.1v45.3h18.4
	c5.4,0,8.5,2.7,8.5,7c0,4.3-3.2,7-8.5,7H604c-4.4,0-8.5-2.8-8.5-7.6L595.4,753.4L595.4,753.4z"/>
<path class="st2" d="M145.9,727.2h535.6v2.6H145.9V727.2z"/>
<path class="st1" d="M233.6,648.9l-1.5,14.4l13,10.6c0,0-16.6,6.3-31.5,6.8c-7.3,0.3-13.8-0.7-13.8-0.7l4.4-23.4
	C214.4,656.9,225.9,652.7,233.6,648.9L233.6,648.9z M191.3,651.9l-4.5,24.6c0,0-9.2-2.7-17.4-12c-15-17.9-20.3-52.6-20.3-52.6
	s-9.7-45.4,4.4-112.9c2.3-9.1,6.3-41.9,32.7-73.7c23-31.6,55.6-39.4,55.6-39.4L202,595.7c0,0-12.2,19.3-15.4,36.6
	C184.7,645,191.3,651.9,191.3,651.9L191.3,651.9z M262.2,380.4c5.9-1.6,28.3-4.5,31.1-4.7l-17.8,260.5l-34.1-95.3l-17.7,23.9
	L262.2,380.4L262.2,380.4z M311.8,374.5c11.6-0.9,46.6,0.4,49.3,0.5l-33.3,336.4h-25.3l-13.2-36.1L311.8,374.5L311.8,374.5z
	 M380.1,375.8c5.4-0.1,34.5,2.3,37.7,2.7c-0.4,0.1-5.5,249-5.5,249c-2.5,0.2-18.9-2-18.9-2l-6.8,86h-35.3L380.1,375.8L380.1,375.8z
	 M432.6,380.1c6.3,0.6,28.8,3.7,29.5,4l0.4,258.5l-6.9-18c-5.4,1.4-20.2,3.2-26,3L432.6,380.1L432.6,380.1z M485.4,388.7
	c8.9,1.2,41.2,10.2,47.3,12.6l-15.2,310.1h-30.6l-11.1-30.5L485.4,388.7L485.4,388.7z M683.2,557l-12.8-32.4L624,538.3
	c0,0-26.7-76.1-36.9-94.6c-14.8-27.6-34-34.3-34-34.3l-15.5,302H571l8.3-102.3l-7.7-18L683.2,557L683.2,557z M588.5,485l20.1,57.9
	l-24.9,6.9L588.5,485L588.5,485z"/>
<path class="st0" d="M137.5,333.8h566.9v503.9H137.5V333.8z"/>
<path class="st3" d="M570.8,590.7l8.2,18.7l0.4-0.3l6.1,14.8l4.1-1.2l0.2-15.8l6.1,13.9l4.2-1.2l-3.6-25.6l11.2,23.3l3.3-1
	l-3.2-17.2l7.4,16l3.8-1.2l-3.2-13.1l8.3,11.6l6.3-2l-5.5-21.8l10.1,20.4l3.8-1.2l-6-25.5l11.3,23.9l4.4-1.3l-6-24.7l11.1,23.2
	l8.5-2.7l-5.2-17.8l11.3,15.9l6.5-2l-3.3-16.5l9.3,14.8l2.2-0.7l-1.3-15l7.9,13l6.6-2L683,556.7L570.8,590.7L570.8,590.7z
	 M186.1,676.3c2.9,1.2,10.6,3.4,14,3.7c0,0,4.3-23.4,4.4-23.4c-1.9,0-7.9,0.5-13.8-5.2L186.1,676.3L186.1,676.3z M224.2,563.9
	l38.4-183.6c-1.8,0.4-17.5,4.4-21.4,6l-39.7,210.5L224.2,563.9L224.2,563.9z"/>
<path class="st3" d="M289.5,676.3l22.8-301.8c-2.2,0.1-17.5,1.1-19.5,1.2l-17.8,259.5L289.5,676.3z"/>
<path class="st3" d="M351.5,711.5l29.1-335.6c0,0-17.9-0.8-20-0.7l-33.3,336.4L351.5,711.5L351.5,711.5z"/>
<path class="st3" d="M417.2,378.5l-5.6,249c2.3,0.4,16.4,0.3,18.4,0.3l3-247.6C433,380.1,418.6,378.5,417.2,378.5L417.2,378.5z"/>
<path class="st3" d="M461.9,640.9l-0.4-256.8c4.9,0.6,24.3,4.8,24.3,4.8l-9.6,293.5L461.9,640.9L461.9,640.9z"/>
<path class="st3" d="M538.1,711.4l15.5-301.8c-3.8-2-15.4-6.6-21.5-8.5l-15.3,310.4L538.1,711.4z"/>
<path class="st3" d="M228.9,744.4c10.3,0,22.8,2.7,22.8,10.6c0,3.6-2.9,7.2-7.4,7.2c-4,0-8.3-3.2-14.9-3.2
	c-13.9,0-19.4,10-19.4,20.3c0,10.6,6.1,19.7,17.9,19.7c10.7,0,12.4-3.1,16.8-3.1c6.8,0,7.6,5.1,7.6,7c0,8.4-14.3,11.3-23.6,11.3
	c-23.6,0-37-15.8-37-34.9C191.5,759.1,206.2,744.4,228.9,744.4L228.9,744.4z M274.9,805.9c-1.6,4.3-3.4,7.4-9,7.4
	c-4.9,0-8.3-2.4-8.3-6.2c0-2.2,0.4-4,2.6-9.4l16.5-39.6c3.1-7.4,5.7-13.8,14.3-13.8c8.8,0,11.4,6.4,14.5,13.8l16.5,39.6
	c2.2,5.3,2.6,7.1,2.6,9.4c0,3.7-3.4,6.2-8.3,6.2c-5.6,0-7.4-3.2-9-7.4l-2.1-6h-28.1L274.9,805.9L274.9,805.9z M300.1,785.8h-18
	l9.2-24.5h0.2L300.1,785.8L300.1,785.8z M360.2,745.9h-21.1c-4.4,0-8.5,2.8-8.5,7.6v51.7c0,5.3,3.6,8.1,8.5,8.1s8.5-2.8,8.5-8.1v-14
	h13c16.3,0,25.2-9.6,25.2-22.7C386,753.5,373.5,745.9,360.2,745.9z M347.8,759.4h9.2c6.8,0,11.3,3.2,11.3,9.2c0,4.7-4,9.1-11.3,9.1
	h-9.2V759.4L347.8,759.4z M430.3,805.9l-2.1-6h-28.1l-2.1,6c-1.6,4.3-3.4,7.4-9,7.4c-4.9,0-8.3-2.4-8.3-6.2c0-2.2,0.4-4,2.6-9.4
	l16.5-39.6c3-7.4,5.7-13.8,14.3-13.8c8.8,0,11.4,6.4,14.5,13.8l16.5,39.6c2.2,5.3,2.5,7.1,2.5,9.4c0,3.7-3.4,6.2-8.3,6.2
	C433.7,813.4,431.9,810.2,430.3,805.9L430.3,805.9z M423.2,785.8h-18l9.2-24.5h0.2L423.2,785.8z M505.4,799.7c2.3,2.2,3.6,4,3.6,6.6
	c0,2.1-2.2,7-8.8,7c-4.4,0-6-1.4-8.2-3.7L471,786h-0.2v19.3c0,5.3-3.6,8.1-8.5,8.1s-8.5-2.8-8.5-8.1v-51.7c0-4.9,4.1-7.6,8.5-7.6
	h20.6c15.2,0,25.2,8.3,25.2,20.8c0,9.9-6.8,17-17.6,18.8L505.4,799.7L505.4,799.7z M470.8,760h11.3c4.9,0,8.8,2.8,8.8,7.2
	c0,4.3-3.2,7.6-8.8,7.6h-11.3V760z M549.9,744.4c-22.3,0-37,13.7-37,34.9c0,21.2,14.7,34.9,37,34.9s37-13.7,37-34.9
	C587,758.1,572.2,744.4,549.9,744.4z M549.9,758.5c13.2,0,18.6,10.2,18.6,20.9c0,10.6-5.4,20.9-18.6,20.9
	c-13.2,0-18.6-10.2-18.6-20.9C531.3,768.8,536.8,758.5,549.9,758.5z M595.4,753.4c0-5.3,3.6-8.1,8.5-8.1s8.5,2.8,8.5,8.1v45.3h18.4
	c5.4,0,8.5,2.7,8.5,7c0,4.3-3.2,7-8.5,7H604c-4.4,0-8.5-2.8-8.5-7.6L595.4,753.4L595.4,753.4z"/>
<path class="st4" d="M145.9,727.2h535.6v2.6H145.9V727.2z"/>
<path class="st3" d="M233.6,648.9l-1.5,14.4l13,10.6c0,0-16.6,6.3-31.5,6.8c-7.3,0.3-13.8-0.7-13.8-0.7l4.4-23.4
	C214.4,656.9,225.9,652.7,233.6,648.9L233.6,648.9z M191.3,651.9l-4.5,24.6c0,0-9.2-2.7-17.4-12c-15-17.9-20.3-52.6-20.3-52.6
	s-9.7-45.4,4.4-112.9c2.3-9.1,6.3-41.9,32.7-73.7c23-31.6,55.6-39.4,55.6-39.4L202,595.7c0,0-12.2,19.3-15.4,36.6
	C184.7,645,191.3,651.9,191.3,651.9L191.3,651.9z M262.2,380.4c5.9-1.6,28.3-4.5,31.1-4.7l-17.8,260.5l-34.1-95.3l-17.7,23.9
	L262.2,380.4L262.2,380.4z M311.8,374.5c11.6-0.9,46.6,0.4,49.3,0.5l-33.3,336.4h-25.3l-13.2-36.1L311.8,374.5L311.8,374.5z
	 M380.1,375.8c5.4-0.1,34.5,2.3,37.7,2.7c-0.4,0.1-5.5,249-5.5,249c-2.5,0.2-18.9-2-18.9-2l-6.8,86h-35.3L380.1,375.8L380.1,375.8z
	 M432.6,380.1c6.3,0.6,28.8,3.7,29.5,4l0.4,258.5l-6.9-18c-5.4,1.4-20.2,3.2-26,3L432.6,380.1L432.6,380.1z M485.4,388.7
	c8.9,1.2,41.2,10.2,47.3,12.6l-15.2,310.1h-30.6l-11.1-30.5L485.4,388.7L485.4,388.7z M683.2,557l-12.8-32.4L624,538.3
	c0,0-26.7-76.1-36.9-94.6c-14.8-27.6-34-34.3-34-34.3l-15.5,302H571l8.3-102.3l-7.7-18L683.2,557L683.2,557z M588.5,485l20.1,57.9
	l-24.9,6.9L588.5,485L588.5,485z"/>
</svg>
