<?xml version="1.0" encoding="utf-8"?>
<!-- Generator: Adobe Illustrator 23.0.3, SVG Export Plug-In . SVG Version: 6.00 Build 0)  -->
<svg version="1.1" id="Calque_1" xmlns="http://www.w3.org/2000/svg" xmlns:xlink="http://www.w3.org/1999/xlink" x="0px" y="0px"
	 viewBox="0 0 841.9 1190.6" style="enable-background:new 0 0 841.9 1190.6;" xml:space="preserve">
<style type="text/css">
	.st0{fill:none;}
	.st1{fill:#646467;}
</style>
<path class="st0" d="M422,683.6c-131.4,0-262.7,0-394.1,0c-1.9,0-2.5-0.2-2.5-2.5c0.1-57.1,0.1-114.1,0-171.2c0-2,0.2-2.6,2.4-2.6
	c262.9,0.1,526,0.1,789,0c1.7,0,2.4,0.2,2.4,2.4c-0.1,57.1-0.1,114.4,0,171.5c0,2.2-0.6,2.5-2.5,2.5
	C685.1,683.6,553.6,683.6,422,683.6z M157.1,592.8c-1.6,0.1-2.1,1-2.9,1.5c-13.4,10.7-28.6,16.4-45.5,16.3c-8.5-0.1-16.9,0-25.4,0
	c-1.5,0-2.4,0.4-3,1.9c-2.2,5.4-4.6,10.8-7,16.1c-1,2.1-0.9,2.7,1.6,2.7c15.9-0.1,31.9-0.1,47.9,0c8.5,0.1,15.1-3.5,20.3-10
	C149.8,612.9,152,602.4,157.1,592.8z M749.6,608.8c4.1,0,8.1,0.1,12.2,0c2.5,0,6.1,1.2,7.3-0.5c1.2-1.7,0.4-5.2,0.5-8.1
	c0.1-1.5-0.4-2.1-1.9-2c-2.9,0.1-5.8,0-8.7,0c-8.6,0-17,0-25.6,0c-2,0-3-0.6-3-2.7c0-2.4,1.7-1.4,2.7-1.4c9.7-0.1,19.4,0,29.1-0.1
	c2.4,0,5.6,1.1,7.1-0.5c1.2-1.5,0.2-4.7,0.5-7.2c0.1-2.1-0.5-2.6-2.5-2.6c-11.6,0.1-23.3,0-34.8,0c-0.7,0-2,0.5-2-1
	c0-1.2-0.1-2.6,1-3.2c0.9-0.4,1.9-0.4,2.9-0.4c11.1,0,22,0,33.1,0c1.7,0,2.6-0.4,2.4-2.4c-0.1-1.9-0.1-3.7,0-5.5
	c0.2-2-0.5-2.4-2.4-2.4c-11.4,0.1-22.9,0-34.3,0c-6.8,0-11.6,5-11.7,12.2c0,5.2,0,10.6,0,15.8c0.1,7.3,4.5,11.8,11.4,11.9
	C738.3,608.8,743.9,608.8,749.6,608.8z M481.2,608.8c6.2,0,12.3,0,18.5,0c1.6,0,2.1-0.2,2.1-2.1c-0.1-7-0.1-13.8,0-20.8
	c0-1.9-0.6-2.2-2.2-2.2c-4.9,0.1-9.7,0-14.6,0c-2.5,0-5.8-0.9-7.1,0.4c-1.6,1.6-0.4,5.2-0.5,8c-0.1,1.6,0.4,2,1.9,2
	c3.9-0.1,7.7,0.1,11.6-0.1c1.9-0.1,2,0.9,1.7,2.4c-0.4,1.6-1.4,1.9-2.7,1.9c-8.5,0-16.9-0.1-25.4,0c-2.2,0-3-1-3-3.1
	c0-4.1,0-8.1,0-12.2c0-3.4,0.4-3.9,3.6-3.9c9.8,0,19.5,0,29.4,0c2.4,0,5.5,1.1,6.8-0.5c1.4-1.5,0.2-4.7,0.5-7.2
	c0.2-2.1-0.5-2.6-2.5-2.6c-11.7,0.1-23.4,0-35.2,0c-6.8,0-11.7,4.9-11.8,12.1c-0.1,5.4-0.1,10.7,0,16.1c0.1,7.1,4.5,11.7,11.3,11.8
	C469.6,608.8,475.3,608.8,481.2,608.8z M167.2,568.8c-1.1,0-2.1,0-3.1,0c-15.6,0-31,0-46.5,0c-12.1,0-20.3,6.1-25.5,17.2
	c-3.1,6.6-6,13.3-8.8,20c-0.4,0.9-0.9,1.6-0.9,2.6c6.3,0.1,12.4,0.2,18.5-2.4c15.6-6.8,27.9-17.8,38-31.6c1-1.4,2-2,3.6-2
	c6.6,0.1,13.2-0.1,19.8,0.1C165.3,573,166.8,572,167.2,568.8z M335.6,581.3c0.1,0,0.4,0.1,0.5,0.1c0,6.8,0,13.7,0,20.7
	c0,6.8,0,6.8,6.6,6.7c1.7,0,2-0.6,2-2.2c-0.1-8.8,0-17.7,0-26.6c0-2.5-0.5-5-1.7-7.1c-3-4.9-8.2-5.5-12.1-1.5
	c-2.2,2.4-3.6,5.2-4.7,8.2c-2,5.5-4,11.1-6,16.6c-0.4,0.9-0.2,2-1.4,2.6c-2.4-6.6-4.6-13.1-7-19.4c-1.1-3.1-2.6-6-5.1-8.3
	c-3.4-3.1-7.6-2.9-10.5,0.6c-1.9,2.4-2.7,5.1-2.7,8.1c0,7.7,0,15.6,0,23.3c0,5.7,0,5.6,5.5,5.7c2.4,0.1,2.9-0.6,2.9-3
	c-0.1-8.2,0-16.4,0-24.8c2.4,4.9,4.4,9.7,6.3,14.6c1.5,3.6,2.6,7.5,5,10.6c3.7,5,9.6,4.6,12.6-0.9c1.1-2.1,2.1-4.5,3-6.7
	C331,593,333.3,587.2,335.6,581.3z M528.1,568.9c-6.5,0-12.8,0.1-19.3,0c-2,0-2.5,0.4-2.5,2.5c0.1,10.1,0,20.2,0,30.2
	c0,2.2-0.7,5.5,0.4,6.7c1.5,1.6,4.5,0.2,6.8,0.5c1.5,0.1,2-0.4,1.9-2c-0.1-3.5,0.1-7-0.1-10.6c-0.1-2,0.5-2.5,2.4-2.5
	c7.7,0.1,15.3,0,23,0c5,0,5,0,5.5,5.1c0.1,0.9,0.2,1.6,0.4,2.5c0.2,2.4-0.2,5.6,1.1,6.8c1.5,1.5,4.5,0.4,6.8,0.5c0.1,0,0.4,0,0.5,0
	c1.1,0.1,1.5-0.1,1.4-1.5c-0.4-2.9-0.5-5.8-1-8.8c-0.5-3.2,0-6.7-2.4-9.5c-0.4-0.4-0.1-0.9,0.1-1.2c2.1-3.1,1.5-6.7,1.4-10.2
	c-0.1-7-1.9-8.6-8.5-8.6C540,568.9,534,568.9,528.1,568.9z M264.6,568.9c-4.4,0-8.6,0-12.9,0c-6.8,0-11.4,4.7-11.4,11.9
	c0,5.5,0,11,0,16.3c0,7.1,4.4,11.6,11.1,11.6c9,0.1,17.8,0.1,26.8,0c6.5,0,10.6-4.2,10.8-11c0.1-5.8,0.1-11.7,0-17.4
	c-0.2-7.3-4.4-11.4-11.4-11.4C273.1,568.9,268.9,568.9,264.6,568.9z M584.2,608.8c4.5,0,9,0,13.4,0c0.1,0,0.4,0,0.5,0
	c5.8-0.2,10-4.1,10.2-10.1c0.2-6.5,0.2-12.9,0-19.4c-0.2-6.5-4.6-10.5-10.7-10.5c-8.7,0-17.4,0-26.1,0c-6.7,0-11.6,4.7-11.7,11.8
	c-0.1,5.6-0.1,11.1,0,16.7c0.1,6.8,4.5,11.3,11.1,11.4C575.4,608.8,579.7,608.8,584.2,608.8z M689.1,568.8c-6.5,0-12.8,0.1-19.3-0.1
	c-2.5-0.1-3.2,0.4-3.2,3.2c0.2,9.7,0,19.4,0.1,29.1c0,2.5-1.1,6,0.5,7.3c1.5,1.2,4.7,0.2,7.2,0.4c1.4,0.1,1.9-0.5,1.7-1.9
	c-0.1-3.5,0-7-0.1-10.6c-0.1-1.7,0.4-2.4,2.2-2.4c6.1,0.1,12.2,0.1,18.3,0c4.7,0,9.6,0.4,14.3-0.2c3.7-0.5,5.6-2.5,6.2-6.3
	c0.5-3.2,0.5-6.5,0.2-9.7c-0.5-7-2.5-9-9.1-9C701.8,568.8,695.4,568.8,689.1,568.8z M215.2,568.9c-5.6,0-11.3,0-16.9,0
	c-7.1,0-11.7,4.7-11.9,12.2c-0.1,5.2-0.1,10.3,0,15.6c0.1,7.7,4.5,12.2,11.8,12.2c10,0,19.9,0,29.9,0c2.5,0,5.6,1.1,7.1-0.5
	s0.2-5,0.5-7.5c0.2-2.1-0.5-2.6-2.5-2.6c-11.4,0.1-22.9,0-34.3,0.1c-2.5,0-3.4-1-3.2-3.4c0.1-3.7,0-7.3,0-11.1c0-4.6,0-4.6,4.4-4.6
	c11.1,0,22.2,0,33.4,0c1.9,0,2.5-0.5,2.4-2.5c-0.1-1.9-0.1-3.9,0-5.8c0.1-1.9-0.5-2.1-2.1-2.1C227.4,568.9,221.3,568.9,215.2,568.9z
	 M637.7,608.8c4.4,0,8.6,0,12.9,0c7.2,0,11.3-4.2,11.3-11.8c0-7,0-13.8,0-20.8c0-2.4,1-5.5-0.5-6.8c-1.2-1.1-4.2-0.2-6.3-0.5
	c-2-0.2-2.2,0.6-2.2,2.5c0.1,7.8,0,15.7,0.1,23.5c0,2.5-0.9,3.5-3.2,3.4c-7.8-0.1-15.7,0-23.5,0c-3.5,0-3.9-0.4-3.9-4.2
	c0-7.6-0.1-15.2,0-22.8c0-2.1-0.6-2.7-2.5-2.5c-1.7,0.1-3.5,0.1-5.2,0c-1,0-1.4,0.4-1.4,1.4c0,9.2-0.1,18.5,0.1,27.8
	c0.2,6.8,4.7,10.7,11.3,10.8C629.1,608.8,633.5,608.8,637.7,608.8z M346.6,608.8c1.7,0,2.6,0,3.6,0c3.5,0,7.3,1,10.2-0.4
	c2.9-1.4,4.9-5,7-7.7c1.2-1.6,2.7-2.2,4.7-2.1c3.6,0.1,7.2,0.2,10.8,0c2.5-0.1,3.2,0.6,3.2,3.4c-0.2,7.2,0,7.1,6.8,7.1
	c1.7,0,2-0.6,2-2.2c-0.1-8,0-15.8,0-23.8c0-2.4,0-4.9-0.2-7.2c-0.5-4.4-3.2-7-7.3-7.3c-3.5-0.4-6.1,1.1-8.5,3.7
	c-6.2,7.1-12.6,14.2-18.8,21.3C355.8,598.4,351.5,603.4,346.6,608.8z M423.9,568.9c-5.7,0-11.4,0-17.2,0c-2.5,0-6-1.2-7.3,0.5
	c-1.2,1.6-0.2,5.1-0.4,7.7c-0.1,1.7,0.5,2.2,2.1,2.1c5.4-0.1,10.7,0,16.2-0.1c1.6,0,2.1,0.5,2,2.2c-0.1,6.7,0,13.4,0,20.2
	c0,7.2,0,7.1,6.8,7.2c1.7,0,2.1-0.6,2.1-2.4c-0.1-8.5,0-16.8-0.1-25.3c0-1.6,0.4-2.2,2-2.2c3.5,0.1,6.8,0.1,10.3,0
	c2.5,0,5.6,1.1,7.2-0.5c1.6-1.6,0.2-5.1,0.6-7.7c0.1-1.7-0.5-2.2-2.1-2.1C438.7,568.9,431.3,568.9,423.9,568.9z M452.4,621.9
	c0.1,0,0.4,0,0.5,0c0,2.6,0,5.1,0,7.7c0,0.5-0.2,1.2,0.6,1.2c0.9,0.1,0.9-0.7,0.9-1.4c0-3,0-6.1,0-9.1c0-0.9,0.5-2-1-2.1
	c-1.2-0.1-1.4,1-1.6,1.7c-1,2.7-2,5.5-3.1,8.8c-1.2-3.5-2.4-6.3-3.4-9.3c-0.2-0.9-0.7-1.5-1.7-1.4c-1.1,0.2-0.7,1.1-0.7,1.7
	c0,3.1,0,6.2,0,9.5c0,0.6-0.2,1.5,0.7,1.4c0.9,0,0.7-0.9,0.7-1.5c0-2.4,0-4.7,0-7c1.4,2.4,2.2,4.9,3.2,7.2c0.2,0.6,0.2,1.4,1.1,1.4
	c0.9,0,0.9-0.9,1.1-1.4C450.7,627,451.5,624.5,452.4,621.9z M372,621.4c0.1,0,0.4-0.1,0.5-0.1c1.9,2.9,3.7,5.8,5.5,8.7
	c0.4,0.6,0.7,1,1.5,0.9c0.9-0.1,0.6-1,0.6-1.5c0-3.1,0-6.2,0-9.3c0-0.6,0.4-1.7-0.7-1.6c-0.7,0.1-0.5,1-0.5,1.6c0,2.5,0,5,0,7.7
	c-1.4-0.4-1.6-1.4-2.1-2.1c-1.4-2-2.6-4.1-4-6.2c-0.4-0.6-0.7-1.4-1.6-1.1c-1,0.2-0.6,1.2-0.6,1.9c0,3.1,0,6.2,0,9.3
	c0,0.6-0.1,1.4,0.9,1.4c0.7-0.1,0.6-0.7,0.6-1.2C372,626.9,372,624.1,372,621.4z M675.2,621.4c0.1,0,0.4-0.1,0.5-0.1
	c1.9,2.9,3.7,5.8,5.5,8.7c0.4,0.5,0.7,1,1.5,0.9c1-0.1,0.6-1,0.6-1.5c0-3.1,0-6.2,0-9.3c0-0.6,0.4-1.7-0.7-1.6
	c-1,0.1-0.6,1.1-0.6,1.9c0,2.5,0,4.9,0,7.5c-1.4-0.4-1.6-1.4-2-2c-1.4-2.1-2.7-4.2-4.1-6.5c-0.4-0.6-0.7-1-1.5-0.9
	c-0.9,0.2-0.6,1-0.6,1.6c0,3.1,0,6.2,0,9.3c0,0.6-0.4,1.7,0.7,1.6c1-0.1,0.6-1.1,0.6-1.7C675.2,626.6,675.2,624,675.2,621.4z
	 M552.1,631.5c-0.9-1.7-0.9-1.7-0.1-3.6c0.5-1.2,0.6-2.5,0.6-3.7c-0.1-4-2.2-6.2-6-6.1c-3.2,0.1-5.5,2.9-5.4,6.8
	c0.1,4,2.4,6.6,5.8,6.3C548.9,631.1,550.5,630.6,552.1,631.5z M736.9,627.6c-0.2,0.1-0.5,0.1-0.7,0.2c-1.6-2.6-3.4-5.2-5.1-7.8
	c-0.5-0.7-0.7-1.9-1.9-1.5c-1,0.4-0.6,1.4-0.6,2.1c0,2.9,0,5.7,0,8.6c0,0.6-0.4,1.7,0.6,1.7c1.1,0,0.7-1.1,0.7-1.7c0-2.5,0-5,0-7.8
	c1.4,0.7,1.6,1.7,2.1,2.5c1.4,2,2.6,4.1,3.9,6.2c0.4,0.6,0.7,1,1.5,0.9c0.7-0.1,0.5-0.9,0.5-1.4c0-3.4,0-6.6,0-10
	c0-0.5,0.1-1.2-0.5-1.2c-1,0-0.6,0.9-0.6,1.5C736.9,622.4,736.9,625,736.9,627.6z M355.5,621.7c0.2,0,0.5-0.1,0.6-0.1
	c1.7,2.7,3.5,5.5,5.2,8.2c0.4,0.6,0.7,1.4,1.6,1.1c1.1-0.2,0.6-1.1,0.6-1.7c0-3,0-5.8,0-8.8c0-0.7,0.5-2-0.7-1.9
	c-1.1,0-0.6,1.2-0.7,2.1c0,2.4,0,4.7,0,7.1c-2.4-2.7-4.2-5.5-6-8.2c-0.4-0.6-0.7-1.4-1.6-1c-0.7,0.2-0.5,1.1-0.5,1.7
	c0,3,0,6.1,0,9.1c0,0.6-0.4,1.7,0.7,1.6c1-0.1,0.6-1.1,0.6-1.9C355.5,626.6,355.5,624.1,355.5,621.7z M323.2,634.3
	c1.6,0.2,3.4,0.9,3.1-1.5c-0.1-1.4,0.2-1.6,1.1-2.1c0.9-0.4,1.5-1,1.9-1.9c0.2-0.6,1-1.5,0.4-2c-1.1-0.9-1.2,0.6-1.5,1.1
	c-0.9,1.6-2.4,2.1-4,1.9c-1.7-0.2-2.5-1.6-3-3.1c-0.4-1.4-0.4-2.7,0-4.1c0.4-1.6,1.2-2.9,2.9-3.2c1.6-0.2,3.2-0.1,4.1,1.6
	c0.2,0.5,0.5,1.5,1.2,1c0.9-0.5,0.1-1.4-0.1-1.9c-1-1.9-2.7-2.1-4.6-2.1c-2.1,0-3.6,1-4.5,2.9c-1.7,3.6-0.6,7.8,2.6,10.1
	c0.9,0.6,1.1,1.9,2.1,2C324.9,634.2,323.7,633.1,323.2,634.3z M667.2,624.6c0-4.1-2.1-6.5-5.6-6.6c-3.6,0-5.7,2.5-5.7,6.6
	c0,4,2.2,6.6,5.6,6.6C665,631.4,667.2,628.7,667.2,624.6z M603,618.3c-3.9,0-3.4-0.5-3.4,3.5c0,1.6,0,3.4,0,5c0,4.4,0,4.4,4.2,4.2
	c3.2-0.1,4.7-1.2,5.5-4.1C610.6,621.5,608.2,618.3,603,618.3z M341.8,618c-3.4,0-5.5,2.6-5.6,6.6c0,4.1,2.4,6.7,5.8,6.7
	c3.4-0.1,5.6-2.7,5.6-6.7S345.4,618,341.8,618z M418.1,624.5c0,1.7,0,3.5,0,5.2c0,0.5,0,1.2,0.7,1.1c0.7,0,0.7-0.6,0.7-1.2
	c0-0.4,0-0.7,0-1.1c0-3.5,0-3.4,3.4-3.2c2.7,0.1,2.2,2.2,2.5,4c0.1,0.7,0,1.7,1,1.6c1.2-0.1,0.4-1.1,0.4-1.7c0.1-2.2-1.1-4.5,0.1-7
	c0.9-1.6-0.2-3.2-2.4-3.9c-5.1-1.4-6.6-0.4-6.6,5C418.1,623.8,418.1,624.1,418.1,624.5z M769.7,619.5c0-0.4,0-0.7,0-1.2
	c-2.4,0-4.9,0-7.2,0c-1,0-0.9,1-0.9,1.6c0,3.1,0,6.2,0,9.5c0,0.6-0.1,1.5,0.7,1.5c2.5,0.1,5.1,0.4,7.6-0.5c-1.6-0.9-3.4-0.7-5-0.5
	c-2,0.1-1.7-1.1-1.7-2.4s-0.4-2.6,1.7-2.5c1.4,0.1,3,0.4,4.2-0.7c-1.5-0.4-3-0.5-4.4-0.4c-1.6,0.1-1.7-0.7-1.6-2
	c0.1-1.1-0.4-2.5,1.6-2.4C766.3,619.7,768,619.5,769.7,619.5z M395.2,619.5c0-0.2,0-0.6,0-0.9c-2.4-0.6-4.7-0.2-7.1-0.2
	c-0.9,0-1,0.6-1,1.4c0,3.4,0,6.6,0,10c0,0.5-0.1,1.2,0.6,1.4c2.5,0.1,5.1,0.2,7.6-0.5c-1.6-0.9-3.4-0.7-5-0.6c-2,0.1-1.9-1-1.9-2.4
	c0-1.5-0.1-2.7,2-2.6c1.4,0.1,2.9,0.5,4-0.9c-1.2-0.4-2.5-0.4-3.7-0.2c-1.6,0.1-2.2-0.4-2.2-2.2c0-2.1,0.9-2.2,2.4-2.1
	C392.2,619.5,393.7,619.5,395.2,619.5z M640.8,624.6c-0.1-2.2,0.4-4.2,2.5-5c2-0.7,3.9-0.5,4.9,1.9c0.2,0.6,0.7,0.9,1.2,0.5
	c0.6-0.4,0.1-1-0.1-1.4c-0.6-1.4-1.6-2.1-3-2.4c-3-0.6-5.4,0.5-6.3,3c-1.2,3.2-0.5,7.6,1.6,9.2c2.7,2,6.8,0.7,8-2.4
	c0.1-0.5,0.6-1.1-0.1-1.4c-0.5-0.1-0.9,0.1-1,0.6c-0.5,1.4-1.4,2.4-2.7,2.6C642.6,630.5,640.7,628.4,640.8,624.6z M624.5,618.5
	c-2.9-0.5-5.4-0.4-7.7-0.2c-1,0-0.7,1.1-0.7,1.7c0,3,0,6.1,0,9.1c0,0.6-0.2,1.6,0.5,1.6c2.6,0.1,5.1,0,7.7,0c0-0.2,0-0.5,0-0.9
	c-1.7-0.5-3.5-0.4-5.1-0.2c-1.9,0.1-1.6-1.1-1.6-2.4s-0.4-2.6,1.7-2.6c1.4,0,2.9,0.5,4.4-0.5c-0.9-1.1-1.9-0.5-2.7-0.7
	c-1.4-0.2-3.4,1-3.4-2.2c0.1-3.2,2.1-1.7,3.5-2.1C621.9,619.3,623.1,619.9,624.5,618.5z M584.1,631c0-0.2,0-0.6,0-0.9
	c-1.6-0.5-3.4-0.4-5-0.2c-1.9,0.1-2-0.7-2-2.4c0-1.5,0-2.7,2-2.6c1.4,0.1,2.7,0.4,4-0.7c-1.4-0.5-2.7-0.5-4.1-0.4
	c-1.5,0.1-2-0.5-1.9-2.1c0-1.5,0.2-2.4,2-2.4c1.5,0,3.2,0.5,5.2-0.7c-2.9-0.6-5.4-0.4-7.7-0.4c-0.9,0-0.9,0.7-0.9,1.5
	c0,3.4,0,6.6,0,10c0,1,0.4,1.4,1.2,1.4C579.3,631,581.7,631,584.1,631z M744.6,624.8c-0.1,1,0.1,2.2,0.5,3.4
	c0.7,2.1,2.4,3.1,4.5,3.2c2.1,0,3.9-0.7,4.7-2.7c0.2-0.6,1.1-1.4,0.1-1.9c-0.6-0.4-1,0.4-1.2,1c-1,2.2-2.7,2.7-4.9,2
	c-1.9-0.7-2.9-3.4-2.4-6.5c0.4-2.1,1.2-3.9,3.6-4c1.2-0.1,2.4,0.1,3.2,1.4c0.5,0.6,0.6,2.2,1.7,1.2c0.5-0.5-0.2-1.6-0.9-2.4
	c-0.6-0.7-1.5-1.2-2.5-1.4C747.2,617.4,744.6,619.8,744.6,624.8z M559.3,623.1L559.3,623.1c0,1.2,0,2.4,0,3.6c0.1,3,1.7,4.6,4.5,4.6
	c2.7,0.1,4.6-1.4,4.9-4.2c0.2-2.5,0.1-5,0.1-7.5c0-0.5,0-1.2-0.7-1.2c-1,0-0.7,0.9-0.7,1.4c0,2.2,0,4.5,0,6.6c0,2.2-0.9,3.5-3.1,3.6
	c-2.2,0.1-3.5-1.1-3.5-3.5c0-2.2,0-4.5,0-6.6c0-0.6,0.1-1.5-0.7-1.5c-1-0.1-0.7,0.9-0.7,1.4C559.3,620.9,559.3,622,559.3,623.1z
	 M411.2,623.3c0-1.2,0-2.4,0-3.6c0-0.5,0.2-1.2-0.5-1.4c-0.9-0.1-0.9,0.6-0.9,1.2c0,2.1,0,4.2,0,6.3c0,2.4-0.7,4-3.2,4
	c-2.2,0-3.2-1.1-3.2-4c0-2.1,0-4.2,0-6.3c0-0.6,0.1-1.5-0.9-1.4c-0.7,0.1-0.6,0.7-0.6,1.2c0,2.4-0.1,4.6,0,7
	c0.1,3.1,1.9,4.7,4.7,4.7c3,0,4.6-1.6,4.7-5C411.2,625.4,411.2,624.4,411.2,623.3z M314.2,630.6c-0.1-0.5-0.2-0.6-0.2-0.7
	c-1.2-3.5-2.5-6.8-3.7-10.3c-0.2-0.6-0.5-1.2-1.2-1.1c-0.9,0-0.9,0.7-1.1,1.4c-1.2,3.2-2.5,6.5-3.6,9.8c-0.1,0.5-0.6,1.1,0,1.5
	c0.7,0.4,1.1-0.4,1.2-1c0.4-2.4,1.7-2.9,3.9-2.9c2.2-0.1,2.9,1.1,3.4,2.9c0.1,0.5,0.2,1.1,1,1.1C313.9,631,314.3,630.9,314.2,630.6z
	 M290.8,624.6c0,1-0.1,2,0,3c0.1,1.1-0.7,3.1,0.9,3.1c1.1,0,0.5-2,0.5-3.1c0-1.5-0.1-2.9,2.1-2.7c1.2,0.1,3.4,1,3.5-0.6
	c0.1-0.9-2.4-0.5-3.7-0.5c-1.5,0-1.9-0.5-1.9-2c0-1.6,0.2-2.6,2.1-2.4c1,0.1,2.1,0,3.1,0c0.5,0,1.1,0.1,1.1-0.7c0-0.6-0.6-0.5-1-0.5
	c-6.7-0.9-6.7-0.9-6.7,6.1C290.8,624.5,290.8,624.5,290.8,624.6z M717.1,627.1c2.5,0,2.6,0,4,2.9c0.2,0.5,0.4,1.1,1.1,0.9
	c0.9-0.2,0.2-0.9,0.1-1.2c-1.2-3.4-2.5-6.7-3.6-10.1c-0.2-0.6-0.4-1.2-1.2-1.2c-0.7,0-1,0.6-1.2,1.2c-1.2,3.2-2.5,6.5-3.6,9.8
	c-0.1,0.5-1,1.2,0,1.6c0.7,0.2,1-0.5,1.2-1.1C714.4,627.9,715.1,626.5,717.1,627.1z M489.5,631c0.7-0.1,0.9-0.9,1-1.4
	c0.4-2,1.5-2.4,3.4-2.5c2.2-0.1,3.4,0.7,3.9,3c0.1,0.5,0.4,1.1,1.1,1c0.7-0.2,0.4-0.9,0.2-1.4c-1.2-3.5-2.5-6.8-3.7-10.3
	c-0.1-0.5-0.4-1-1.1-1c-0.6,0-0.9,0.5-1.1,1c-1.4,3.5-2.6,7-4,10.5C488.9,630.2,488.5,630.9,489.5,631z M697.9,619.3
	c0-0.4,0-0.6,0-1c-2,0-4,0.1-5.8,0c-1.5-0.1-2,0.4-2,2c0.1,2.5,0,5,0.1,7.5c0,1.1-0.7,3.1,0.6,3c1.6,0,0.9-2.1,0.7-3.1
	c-0.1-2,0.4-2.9,2.5-2.6c1.1,0.1,2.4,0.5,3.6-0.5c-1.2-1.1-2.5-0.6-3.6-0.6c-1.6,0-2.6,0-2.6-2.2c0-2.4,1.2-2.1,2.7-2.1
	C695.4,619.4,696.7,619.8,697.9,619.3z M469.2,624.4c-2-0.9-3.5-0.6-4.9-0.5c-1.6,0.1-1.9-0.7-1.9-2.1c0-1.5,0.1-2.5,2-2.4
	c1.6,0.1,3.2,0,4.7,0c0-0.2,0-0.6,0-0.9c-2.1-0.5-4.2-0.1-6.3-0.2c-1.2-0.1-1.7,0.5-1.6,1.7c0.1,3.1,0,6.2,0,9.5
	c0,0.5-0.1,1.4,0.5,1.4c2.5,0.1,5.1,0.4,7.5-0.6c-1.6-0.4-3.2-0.5-4.9-0.4c-1.5,0.1-2-0.4-2-2c-0.1-2.1,0.2-3.4,2.7-3
	C466.3,625.1,467.5,625.3,469.2,624.4z M483.8,618.7c-3,0-5.8,0-8.7,0c0.2,0.6,0.6,0.9,0.9,0.9c2.4-0.4,2.9,0.9,2.6,3
	c-0.1,2.4,0,4.7,0,7.2c0,0.6,0,1.4,0.9,1.2c0.7-0.1,0.5-0.9,0.5-1.4c0-1.7,0.1-3.5,0-5.2c-0.1-2.7-0.4-5.5,3.5-5.1
	C483.5,619.2,483.5,619,483.8,618.7z M513.3,630.6c-2.4-1.7-5.5,0.7-6.6-1.7c-0.9-2.1-0.2-4.9-0.2-7.3c0-0.5,0-1.1,0-1.6
	c0-0.6,0.2-1.4-1.2-1.5c0,4,0,7.8,0,11.7c0,0.5,0.2,0.9,0.7,0.9C508.3,630.9,510.5,631.2,513.3,630.6z M520.2,618.4
	c-0.4,0-0.9,0-1.2,0c0,3.9,0,7.8,0,11.7c0,0.4,0.1,0.7,0.5,0.7c2.4,0,4.6,0.4,7-0.6c-1.2-0.4-2.4-0.6-3.6-0.4
	c-2.2,0.4-2.9-0.6-2.7-2.9C520.4,624.1,520.2,621.3,520.2,618.4z M534.5,624.9c0-1.9,0-3.7,0-5.5c0-0.5,0-1-0.6-1
	c-0.5,0-0.7,0.4-0.7,0.9c0,3.6,0,7.2,0,10.7c0,0.5,0.1,1,0.7,1c0.7,0,0.7-0.6,0.7-1.1C534.5,628.1,534.5,626.5,534.5,624.9z
	 M705.8,624.6c0-1.7,0-3.5,0-5.2c0-0.5,0-1-0.6-1c-0.7-0.1-0.9,0.5-0.9,1c0,3.5,0,7,0,10.5c0,0.5,0,1,0.6,1c0.7,0.1,0.9-0.5,0.9-1
	C705.8,628.1,705.8,626.4,705.8,624.6z"/>
<path class="st1" d="M157.1,592.8c-5.1,9.6-7.3,20.3-14.1,28.5c-5.2,6.5-11.9,10-20.3,10c-15.9-0.1-31.9-0.1-47.9,0
	c-2.5,0-2.5-0.6-1.6-2.7c2.5-5.4,4.9-10.7,7-16.1c0.6-1.5,1.5-2,3-1.9c8.5,0.1,16.9,0,25.4,0c17,0.1,32.1-5.5,45.5-16.3
	C155,593.7,155.5,592.8,157.1,592.8z"/>
<path class="st1" d="M749.6,608.8c-5.6,0-11.3,0-16.9,0c-7,0-11.4-4.6-11.4-11.9c0-5.2,0-10.6,0-15.8c0-7.2,4.9-12.2,11.7-12.2
	c11.4,0,22.9,0,34.3,0c1.9,0,2.5,0.4,2.4,2.4c-0.1,1.9-0.1,3.7,0,5.5c0.1,2-0.6,2.4-2.4,2.4c-11.1-0.1-22,0-33.1,0c-1,0-2,0-2.9,0.4
	c-1.2,0.6-1.1,2-1,3.2c0,1.5,1.2,1,2,1c11.6,0,23.3,0.1,34.8,0c2,0,2.6,0.5,2.5,2.6c-0.2,2.5,0.7,5.7-0.5,7.2
	c-1.4,1.7-4.6,0.5-7.1,0.5c-9.7,0.1-19.4,0-29.1,0.1c-1,0-2.6-1-2.7,1.4c0,2.2,1.1,2.9,3,2.7c8.6,0,17,0,25.6,0c2.9,0,5.8,0.1,8.7,0
	c1.5-0.1,2,0.5,1.9,2c-0.1,2.7,0.9,6.2-0.5,8.1c-1.2,1.7-4.7,0.4-7.3,0.5C757.7,608.8,753.6,608.8,749.6,608.8z"/>
<path class="st1" d="M481.2,608.8c-5.8,0-11.7,0-17.4,0c-6.8,0-11.2-4.6-11.3-11.8c-0.1-5.4-0.1-10.7,0-16.1
	c0.1-7.2,4.9-12.1,11.8-12.1c11.7,0,23.4,0,35.2,0c2,0,2.6,0.5,2.5,2.6c-0.2,2.5,1,5.7-0.5,7.2c-1.4,1.6-4.5,0.5-6.8,0.5
	c-9.8,0-19.5,0-29.4,0c-3.2,0-3.6,0.5-3.6,3.9c0,4.1,0,8.1,0,12.2c0,2.2,0.7,3.1,3,3.1c8.5-0.1,16.9,0,25.4,0c1.4,0,2.5-0.2,2.7-1.9
	c0.2-1.5,0.2-2.5-1.7-2.4c-3.9,0.1-7.7,0-11.6,0.1c-1.5,0-2.1-0.4-1.9-2c0.2-2.7-1.1-6.3,0.5-8c1.2-1.4,4.7-0.4,7.1-0.4
	c4.9,0,9.7,0,14.6,0c1.6,0,2.2,0.4,2.2,2.2c-0.1,7-0.1,13.8,0,20.8c0,1.7-0.5,2.1-2.1,2.1C493.5,608.7,487.4,608.8,481.2,608.8z"/>
<path class="st1" d="M167.2,568.8c-0.4,3.1-1.9,4.1-4.6,4.1c-6.6-0.2-13.2,0-19.8-0.1c-1.7,0-2.6,0.6-3.6,2
	c-10.2,13.8-22.4,24.8-38,31.6c-6.1,2.6-12.3,2.5-18.5,2.4c-0.1-1.1,0.5-1.9,0.9-2.6c2.9-6.7,5.7-13.4,8.8-20
	c5.2-11,13.4-17.2,25.5-17.2c15.6,0.1,31,0,46.5,0C165.1,568.8,166.1,568.8,167.2,568.8z"/>
<path class="st1" d="M335.6,581.3c-2.4,5.8-4.6,11.6-7,17.4c-0.9,2.2-1.9,4.6-3,6.7c-3,5.5-9,5.8-12.6,0.9c-2.4-3.2-3.5-7-5-10.6
	c-2-4.9-3.9-9.8-6.3-14.6c0,8.2-0.1,16.4,0,24.8c0,2.5-0.5,3.1-2.9,3c-5.5-0.2-5.5,0-5.5-5.7c0-7.7,0-15.6,0-23.3
	c0-3.1,0.9-5.8,2.7-8.1c2.9-3.6,7.1-3.9,10.5-0.6c2.4,2.2,3.9,5.2,5.1,8.3c2.4,6.5,4.6,12.9,7,19.4c1-0.6,1-1.7,1.4-2.6
	c2-5.5,4-11.1,6-16.6c1.1-3,2.5-6,4.7-8.2c3.9-4,9.2-3.4,12.1,1.5c1.4,2.1,1.7,4.6,1.7,7.1c0,8.8,0,17.7,0,26.6c0,1.6-0.2,2.2-2,2.2
	c-6.6,0-6.6,0.1-6.6-6.7c0-6.8,0-13.7,0-20.7C335.9,581.5,335.8,581.3,335.6,581.3z"/>
<path class="st1" d="M528.1,568.9c6,0,11.9,0,18,0c6.6,0,8.3,1.7,8.5,8.6c0.1,3.5,0.7,7.1-1.4,10.2c-0.2,0.4-0.5,0.9-0.1,1.2
	c2.4,2.7,1.9,6.2,2.4,9.5c0.4,2.9,0.6,5.8,1,8.8c0.2,1.4-0.2,1.6-1.4,1.5c-0.1,0-0.4,0-0.5,0c-2.4-0.1-5.5,1-6.8-0.5
	c-1.2-1.4-0.7-4.5-1.1-6.8c-0.1-0.9-0.2-1.6-0.4-2.5c-0.6-5.1-0.6-5.1-5.5-5.1c-7.7,0-15.3,0.1-23,0c-1.9,0-2.4,0.5-2.4,2.5
	c0.1,3.5,0,7,0.1,10.6c0,1.6-0.5,2.1-1.9,2c-2.4-0.2-5.4,1-6.8-0.5c-1.1-1.2-0.4-4.4-0.4-6.7c0-10.1,0-20.2,0-30.2
	c0-2.1,0.5-2.6,2.5-2.5C515.3,569,521.6,568.9,528.1,568.9z M530.4,579.1c-4.4,0-8.6,0.1-12.9,0c-2-0.1-2.2,0.9-2.2,2.6
	c0,1.9,0.5,2.2,2.2,2.2c7.8-0.1,15.7,0,23.5,0c0.9,0,1.7,0.1,2.6-0.1c1.7-0.4,2-1.9,2-3.4c0.1-2-1.4-1.2-2.2-1.2
	C539.1,579.1,534.8,579.1,530.4,579.1z"/>
<path class="st1" d="M264.6,568.9c4.2,0,8.5,0,12.7,0c7.1,0,11.3,4.1,11.4,11.4c0.1,5.8,0.1,11.7,0,17.4c-0.2,6.8-4.4,11-10.8,11
	c-9,0.1-17.8,0.1-26.8,0c-6.8,0-11.1-4.6-11.1-11.6c0-5.5,0-11,0-16.3c0-7.2,4.6-11.9,11.4-11.9C256,568.9,260.4,568.9,264.6,568.9z
	 M264.4,598.3c4.2,0,8.5,0,12.7,0c1.6,0,2.6-0.6,2.6-2.5c0-4.6,0-9.2,0-13.8c0-1.9-0.7-2.7-2.5-2.7c-8.5,0-16.9,0-25.4,0
	c-1.9,0-2.7,0.7-2.6,2.7c0.1,4.4,0.1,8.7,0,12.9c0,2.5,1,3.4,3.4,3.4C256.5,598.1,260.4,598.3,264.4,598.3z"/>
<path class="st1" d="M584.2,608.8c-4.4,0-8.8,0-13.2,0c-6.6-0.1-11-4.6-11.1-11.4c-0.1-5.5-0.1-11.1,0-16.7
	c0.1-7.1,4.9-11.8,11.7-11.8c8.7,0,17.4,0,26.1,0c6.2,0,10.5,4,10.7,10.5s0.2,12.9,0,19.4c-0.2,6-4.4,9.8-10.2,10.1
	c-0.1,0-0.4,0-0.5,0C593.2,608.8,588.7,608.8,584.2,608.8z M584.2,579.2c-4.1,0-8.3,0-12.4,0c-1.5,0-2.9,0.2-2.9,2.4
	c0,4.7,0,9.5,0,14.1c0,1.7,0.9,2.7,2.6,2.7c8.5,0,16.9,0,25.4,0c1.7,0,2.6-0.7,2.6-2.6c0-4.5,0-9.1,0-13.6c0-2.1-0.9-3-2.9-3
	C592.4,579.2,588.3,579.2,584.2,579.2z"/>
<path class="st1" d="M689.1,568.8c6.3,0,12.7,0,19,0c6.6,0,8.6,2.1,9.1,9c0.2,3.2,0.1,6.5-0.2,9.7c-0.5,3.9-2.5,6-6.2,6.3
	c-4.7,0.6-9.5,0.2-14.3,0.2c-6.1,0.1-12.2,0.1-18.3,0c-1.7,0-2.2,0.5-2.2,2.4c0.1,3.5,0,7,0.1,10.6c0,1.5-0.4,2-1.7,1.9
	c-2.5-0.1-5.6,0.9-7.2-0.4c-1.6-1.4-0.5-4.9-0.5-7.3c-0.1-9.7,0.1-19.4-0.1-29.1c0-2.9,0.7-3.2,3.2-3.2
	C676.3,568.9,682.8,568.8,689.1,568.8z M692.2,579.1c-4.6,0-9.2,0.1-13.7,0c-1.9,0-2.5,0.5-2.4,2.5c0,1.7,0.1,2.7,2.4,2.7
	c8.6-0.1,17.3-0.1,25.9-0.1c0.5,0,1.1,0,1.6-0.1c2-0.4,2.1-1.9,2.1-3.5c0.1-2.1-1.5-1.4-2.4-1.4
	C701.2,579.1,696.7,579.1,692.2,579.1z"/>
<path class="st1" d="M215.2,568.9c6.1,0,12.2,0,18.3,0c1.5,0,2.2,0.2,2.1,2.1s-0.1,3.9,0,5.8c0.1,2-0.5,2.5-2.4,2.5
	c-11.1-0.1-22.2,0-33.4,0c-4.4,0-4.4,0-4.4,4.6c0,3.7,0.1,7.3,0,11.1c-0.1,2.5,0.7,3.5,3.2,3.4c11.4-0.1,22.9,0,34.3-0.1
	c2,0,2.7,0.5,2.5,2.6c-0.2,2.5,1,5.8-0.5,7.5s-4.7,0.5-7.1,0.5c-10,0-19.9,0-29.9,0c-7.3,0-11.7-4.4-11.8-12.2
	c-0.1-5.2-0.1-10.3,0-15.6c0.1-7.5,4.7-12.2,11.9-12.2C204,568.9,209.6,568.9,215.2,568.9z"/>
<path class="st1" d="M637.7,608.8c-4.4,0-8.6,0-12.9,0c-6.6,0-11.1-4-11.3-10.8c-0.4-9.2-0.1-18.4-0.1-27.8c0-1.1,0.4-1.5,1.4-1.4
	c1.7,0.1,3.5,0.1,5.2,0c1.9-0.2,2.5,0.4,2.5,2.5c-0.1,7.6,0,15.2,0,22.8c0,3.7,0.4,4.1,3.9,4.2c7.8,0,15.7,0,23.5,0
	c2.4,0,3.2-0.9,3.2-3.4c-0.1-7.8,0-15.7-0.1-23.5c0-1.9,0.2-2.7,2.2-2.5c2.1,0.2,5.1-0.7,6.3,0.5c1.5,1.4,0.5,4.5,0.5,6.8
	c0.1,7,0,13.8,0,20.8c0,7.6-4.1,11.8-11.3,11.8C646.4,608.8,642.1,608.8,637.7,608.8z"/>
<path class="st1" d="M346.6,608.8c4.9-5.5,9.2-10.5,13.6-15.4c6.2-7.1,12.6-14.2,18.8-21.3c2.2-2.6,5-4,8.5-3.7
	c4.1,0.4,6.8,3,7.3,7.3c0.2,2.4,0.2,4.7,0.2,7.2c0,8,0,15.8,0,23.8c0,1.6-0.2,2.2-2,2.2c-6.8,0.1-7,0.1-6.8-7.1
	c0.1-2.7-0.6-3.5-3.2-3.4c-3.6,0.2-7.2,0.1-10.8,0c-2-0.1-3.5,0.5-4.7,2.1c-2.2,2.7-4.1,6.3-7,7.7c-2.9,1.4-6.7,0.4-10.2,0.4
	C349.4,608.8,348.4,608.8,346.6,608.8z M377.5,589.9c2.6,0,5,0,7.5,0c0.6,0,1.2-0.1,1.2-1c0-3,0-6.1,0-9.8c-3.1,3.6-5.8,6.7-8.5,9.8
	C377.6,589,377.6,589.4,377.5,589.9z"/>
<path class="st1" d="M423.9,568.9c7.3,0,14.8,0,22.2,0c1.6,0,2.2,0.4,2.1,2.1c-0.2,2.6,1.1,6-0.6,7.7c-1.5,1.5-4.7,0.4-7.2,0.5
	c-3.5,0.1-6.8,0.1-10.3,0c-1.6-0.1-2.1,0.5-2,2.2c0.1,8.5,0,16.8,0.1,25.3c0,1.7-0.4,2.4-2.1,2.4c-6.8,0-6.8,0.1-6.8-7.2
	c0-6.7,0-13.4,0-20.2c0-1.7-0.4-2.2-2-2.2c-5.4,0.1-10.7,0-16.2,0.1c-1.6,0-2.2-0.4-2.1-2.1c0.1-2.6-0.9-6.1,0.4-7.7
	c1.4-1.7,4.7-0.5,7.3-0.5C412.5,568.9,418.2,568.9,423.9,568.9z"/>
<path class="st1" d="M452.4,621.9c-0.9,2.6-1.7,5.2-2.7,7.7c-0.2,0.5-0.2,1.4-1.1,1.4c-0.9,0-0.9-0.7-1.1-1.4
	c-0.9-2.5-1.7-4.9-3.2-7.2c0,2.4,0,4.7,0,7c0,0.6,0.1,1.5-0.7,1.5c-1,0-0.7-0.9-0.7-1.4c0-3.1,0-6.2,0-9.5c0-0.6-0.4-1.6,0.7-1.7
	c1-0.2,1.4,0.5,1.7,1.4c1,2.9,2.1,5.7,3.4,9.3c1.2-3.4,2.1-6.1,3.1-8.8c0.2-0.9,0.4-1.9,1.6-1.7c1.4,0.1,1,1.4,1,2.1
	c0,3,0,6.1,0,9.1c0,0.6,0.1,1.4-0.9,1.4c-0.7-0.1-0.6-0.7-0.6-1.2c0-2.6,0-5.1,0-7.7C452.8,621.9,452.7,621.9,452.4,621.9z"/>
<path class="st1" d="M372,621.4c0,2.7,0,5.5,0,8.2c0,0.5,0.1,1.2-0.6,1.2c-1,0.1-0.9-0.7-0.9-1.4c0-3.1,0-6.2,0-9.3
	c0-0.6-0.4-1.6,0.6-1.9c0.9-0.2,1.2,0.5,1.6,1.1c1.2,2.1,2.6,4.1,4,6.2c0.5,0.7,0.7,1.7,2.1,2.1c0-2.7,0-5.2,0-7.7
	c0-0.6-0.2-1.5,0.5-1.6c1.1-0.1,0.7,1,0.7,1.6c0,3.1,0,6.2,0,9.3c0,0.6,0.2,1.4-0.6,1.5c-0.7,0.1-1.1-0.4-1.5-0.9
	c-1.9-2.9-3.7-5.8-5.5-8.7C372.4,621.4,372.1,621.4,372,621.4z"/>
<path class="st1" d="M675.2,621.4c0,2.6,0,5.1,0,7.7c0,0.6,0.4,1.7-0.6,1.7c-1.1,0.1-0.7-1-0.7-1.6c0-3.1,0-6.2,0-9.3
	c0-0.6-0.2-1.4,0.6-1.6c0.7-0.1,1.1,0.4,1.5,0.9c1.4,2.1,2.7,4.4,4.1,6.5c0.5,0.7,0.6,1.7,2,2c0-2.6,0-5,0-7.5
	c0-0.6-0.4-1.7,0.6-1.9c1.1-0.1,0.7,1,0.7,1.6c0,3.1,0,6.2,0,9.3c0,0.6,0.2,1.4-0.6,1.5c-0.7,0.1-1.1-0.4-1.5-0.9
	c-1.9-2.9-3.6-5.8-5.5-8.7C675.4,621.4,675.3,621.4,675.2,621.4z"/>
<path class="st1" d="M552.1,631.5c-1.7-0.9-3.4-0.2-5-0.2c-3.4,0.2-5.7-2.4-5.8-6.3c-0.1-4,2-6.7,5.4-6.8c3.7-0.1,5.8,2.1,6,6.1
	c0,1.2,0,2.6-0.6,3.7C551.2,629.7,551.3,629.7,552.1,631.5z M546.9,619.3c-2.6,0-4.2,2.1-4.1,5.6c0,3.2,1.7,5.2,4.2,5.1
	c0.5,0,1.6,0.1,1.2-0.6c-1-2.2,0-1.6,1.1-1c0.5,0.2,0.9,0.1,1.1-0.4c1.1-2,1.1-4,0.4-6.1C550.1,620.2,548.7,619.3,546.9,619.3z"/>
<path class="st1" d="M736.9,627.6c0-2.6,0-5.1,0-7.7c0-0.6-0.2-1.5,0.6-1.5c0.7,0,0.5,0.7,0.5,1.2c0,3.4,0,6.6,0,10
	c0,0.5,0.1,1.1-0.5,1.4c-0.7,0.1-1.1-0.2-1.5-0.9c-1.2-2.1-2.6-4.1-3.9-6.2c-0.5-0.7-0.9-1.7-2.1-2.5c0,2.7,0,5.4,0,7.8
	c0,0.6,0.4,1.7-0.7,1.7c-1,0-0.6-1.1-0.6-1.7c0-2.9,0-5.7,0-8.6c0-0.7-0.5-1.9,0.6-2.1c1.1-0.4,1.4,0.9,1.9,1.5
	c1.7,2.6,3.4,5.2,5.1,7.8C736.4,627.7,736.6,627.6,736.9,627.6z"/>
<path class="st1" d="M355.5,621.7c0,2.5,0,4.9,0,7.3c0,0.6,0.4,1.7-0.6,1.9c-1.1,0.1-0.7-1-0.7-1.6c0-3,0-6.1,0-9.1
	c0-0.6-0.2-1.4,0.5-1.7c0.9-0.4,1.2,0.4,1.6,1c1.7,2.7,3.5,5.5,6,8.2c0-2.4,0-4.7,0-7.1c0-0.7-0.4-2,0.7-2.1c1.1,0,0.7,1.2,0.7,1.9
	c0,3,0,5.8,0,8.8c0,0.6,0.5,1.6-0.6,1.7c-0.9,0.1-1.2-0.6-1.6-1.1c-1.7-2.7-3.5-5.5-5.2-8.2C356,621.7,355.7,621.7,355.5,621.7z"/>
<path class="st1" d="M323.2,634.3c0.5-1.1,1.6,0,2-1.2c-1-0.2-1.2-1.5-2.1-2c-3.2-2.2-4.4-6.5-2.6-10.1c0.9-1.9,2.5-2.9,4.5-2.9
	c1.9,0,3.6,0.2,4.6,2.1c0.2,0.5,1,1.4,0.1,1.9c-0.7,0.5-1-0.5-1.2-1c-0.9-1.7-2.5-2-4.1-1.6c-1.6,0.4-2.5,1.6-2.9,3.2
	c-0.2,1.4-0.4,2.7,0,4.1c0.4,1.6,1.2,2.9,3,3.1c1.7,0.2,3.1-0.2,4-1.9c0.4-0.6,0.5-2,1.5-1.1c0.6,0.5-0.1,1.4-0.4,2
	c-0.4,0.9-1,1.5-1.9,1.9s-1.2,0.6-1.1,2.1C326.6,635.1,324.9,634.6,323.2,634.3z"/>
<path class="st1" d="M667.2,624.6c0,4.1-2.2,6.7-5.7,6.7c-3.4,0-5.6-2.7-5.6-6.6c0-4.1,2.2-6.7,5.7-6.6
	C665.1,618,667.2,620.5,667.2,624.6z M665.8,624.6c0-3.4-1.6-5.4-4.4-5.4c-2.6,0-4.4,2.2-4.2,5.5c0,3.1,1.6,5.2,4.2,5.2
	C664.1,630.1,665.8,628,665.8,624.6z"/>
<path class="st1" d="M603,618.3c5.2,0,7.7,3.2,6.3,8.6c-0.7,2.9-2.2,4-5.5,4.1c-4.2,0.1-4.2,0.1-4.2-4.2c0-1.6,0-3.4,0-5
	C599.6,617.8,599.1,618.3,603,618.3z M601,624.8c0,0.9,0.1,1.9,0,2.7c-0.2,2,0.5,2.6,2.4,2.4c1.6-0.2,3.5-0.2,4.2-2.2
	c0.9-2.1,1-4.4-0.1-6.3c-1.2-2.2-3.5-2-5.5-1.7c-1.7,0.2-0.7,2.1-1,3.2C600.9,623.4,601,624.1,601,624.8z"/>
<path class="st1" d="M341.8,618c3.6,0,5.8,2.6,5.8,6.6c0,3.9-2.2,6.6-5.6,6.7c-3.5,0.1-5.8-2.6-5.8-6.7
	C336.3,620.7,338.4,618,341.8,618z M346.1,624.5c0-3.4-1.6-5.4-4.4-5.2c-2.5,0.1-4.1,2.1-4.1,5.4c0,3.4,1.6,5.5,4.2,5.5
	C344.5,630,346.1,628,346.1,624.5z"/>
<path class="st1" d="M418.1,624.5c0-0.4,0-0.7,0-1.1c0-5.4,1.4-6.3,6.6-5c2,0.6,3.1,2.2,2.4,3.9c-1.2,2.5-0.1,4.6-0.1,7
	c0,0.6,0.7,1.6-0.4,1.7c-1,0.1-0.9-0.9-1-1.6c-0.2-1.7,0.2-3.9-2.5-4c-3.2-0.1-3.2-0.2-3.4,3.2c0,0.4,0,0.7,0,1.1
	c0,0.5,0,1.1-0.7,1.2c-0.7,0-0.7-0.6-0.7-1.1C418.1,628,418.1,626.3,418.1,624.5z M421.5,619.4c-1.4-0.4-2.1,0.4-2,2.4
	c0.1,1.5,0,2.7,2.1,2.5c1.7-0.2,4,0.1,4.1-2.4C425.8,619.4,423.7,619.5,421.5,619.4z"/>
<path class="st1" d="M769.7,619.5c-1.7,0-3.4,0.1-5.1,0c-1.9-0.1-1.5,1.2-1.6,2.4c-0.1,1.2,0,2.1,1.6,2c1.5-0.1,2.9,0,4.4,0.4
	c-1.2,1.1-2.9,0.9-4.2,0.7c-2-0.1-1.7,1.2-1.7,2.5c0,1.2-0.2,2.6,1.7,2.4c1.6-0.1,3.4-0.4,5,0.5c-2.5,0.7-5,0.5-7.6,0.5
	c-0.9,0-0.7-0.9-0.7-1.5c0-3.1,0-6.2,0-9.5c0-0.7-0.1-1.6,0.9-1.6c2.4,0,4.9,0,7.2,0C769.7,618.7,769.7,619,769.7,619.5z"/>
<path class="st1" d="M395.2,619.5c-1.5,0-2.9,0-4.4,0c-1.5-0.1-2.5,0-2.4,2.1c0,1.9,0.6,2.4,2.2,2.2c1.2-0.1,2.5,0,3.7,0.2
	c-1.2,1.4-2.7,1-4,0.9c-2.1-0.1-2,1.1-2,2.6c0,1.4-0.1,2.5,1.9,2.4c1.6-0.1,3.4-0.4,5,0.6c-2.5,0.7-5.1,0.6-7.6,0.5
	c-0.7,0-0.6-0.7-0.6-1.4c0-3.4,0-6.6,0-10c0-0.7,0.1-1.4,1-1.4c2.4,0.1,4.9-0.4,7.1,0.2C395.2,618.9,395.2,619.2,395.2,619.5z"/>
<path class="st1" d="M640.8,624.6c0,3.9,1.9,6,4.7,5.4c1.5-0.2,2.2-1.2,2.7-2.6c0.1-0.5,0.5-0.9,1-0.6c0.7,0.2,0.4,0.9,0.1,1.4
	c-1.1,3.1-5.2,4.4-8,2.4c-2.1-1.6-2.9-6-1.6-9.2c1-2.5,3.4-3.6,6.3-3c1.4,0.2,2.4,1.1,3,2.4c0.1,0.4,0.7,1,0.1,1.4
	c-0.5,0.4-1,0.1-1.2-0.5c-1-2.4-3-2.6-4.9-1.9C641.2,620.4,640.7,622.4,640.8,624.6z"/>
<path class="st1" d="M624.5,618.5c-1.4,1.4-2.6,0.7-3.6,0.9c-1.4,0.2-3.4-1.1-3.5,2.1c-0.1,3.2,2,2,3.4,2.2c0.9,0.1,1.9-0.5,2.7,0.7
	c-1.4,1-3,0.5-4.4,0.5c-2.1-0.1-1.6,1.4-1.7,2.6c0,1.1-0.2,2.4,1.6,2.4c1.7-0.1,3.5-0.4,5.1,0.2c0,0.2,0,0.5,0,0.9
	c-2.6,0-5.2,0.1-7.7,0c-0.7,0-0.5-1-0.5-1.6c0-3,0-6.1,0-9.1c0-0.6-0.2-1.7,0.7-1.7C619.2,618.3,621.7,618,624.5,618.5z"/>
<path class="st1" d="M584.1,631c-2.4,0-4.7,0-7,0c-0.9,0-1.2-0.4-1.2-1.4c0-3.4,0-6.6,0-10c0-0.6,0-1.4,0.9-1.5
	c2.4,0,4.7-0.4,7.7,0.4c-2,1.4-3.6,0.9-5.2,0.7c-1.7-0.1-2,0.9-2,2.4c0,1.5,0.4,2.2,1.9,2.1c1.4-0.1,2.7,0,4.1,0.4
	c-1.2,1.1-2.6,0.9-4,0.7c-2.1-0.1-2,1.1-2,2.6s0.1,2.5,2,2.4c1.6-0.1,3.4-0.4,5,0.2C584.1,630.4,584.1,630.7,584.1,631z"/>
<path class="st1" d="M744.6,624.8c0-5,2.5-7.3,6.7-6.7c1,0.1,1.9,0.6,2.5,1.4c0.5,0.6,1.4,1.9,0.9,2.4c-1.1,1-1.2-0.6-1.7-1.2
	c-0.9-1.1-2-1.4-3.2-1.4c-2.4,0.1-3.2,1.9-3.6,4c-0.5,3.1,0.5,5.7,2.4,6.5c2.1,0.7,3.9,0.2,4.9-2c0.2-0.6,0.6-1.4,1.2-1
	c0.9,0.5,0.1,1.4-0.1,1.9c-1,2-2.7,2.7-4.7,2.7c-2.1,0-3.7-1.1-4.5-3.2C744.9,627,744.6,625.9,744.6,624.8z"/>
<path class="st1" d="M559.3,623.1c0-1.1,0-2.2,0-3.4c0-0.6-0.2-1.5,0.7-1.4c0.9,0,0.7,0.9,0.7,1.5c0,2.2,0,4.5,0,6.6
	c0,2.4,1.1,3.6,3.5,3.5c2.2-0.1,3.1-1.4,3.1-3.6s0-4.5,0-6.6c0-0.6-0.1-1.5,0.7-1.4c0.7,0,0.7,0.7,0.7,1.2c0,2.5,0.1,5-0.1,7.5
	c-0.2,2.9-2.1,4.4-4.9,4.2c-2.7-0.1-4.4-1.6-4.5-4.6C559.2,625.5,559.3,624.3,559.3,623.1L559.3,623.1z"/>
<path class="st1" d="M411.2,623.3c0,1,0,2,0,3c-0.1,3.4-1.7,5-4.7,5c-2.9,0-4.6-1.6-4.7-4.7c-0.1-2.2,0-4.6,0-7
	c0-0.5-0.1-1.2,0.6-1.2c1-0.1,0.9,0.7,0.9,1.4c0,2.1,0,4.2,0,6.3c0,2.9,1,4,3.2,4c2.6,0,3.2-1.6,3.2-4c0-2.1,0-4.2,0-6.3
	c0-0.6,0-1.5,0.9-1.2c0.7,0.1,0.5,0.9,0.5,1.4C411.2,620.9,411.2,622.1,411.2,623.3z"/>
<path class="st1" d="M314.2,630.6c0.1,0.2-0.2,0.4-0.6,0.4c-0.7,0.1-0.9-0.6-1-1.1c-0.5-1.7-1.1-3-3.4-2.9c-2.1,0.1-3.5,0.5-3.9,2.9
	c-0.1,0.6-0.5,1.4-1.2,1c-0.6-0.4-0.1-1,0-1.5c1.2-3.2,2.4-6.5,3.6-9.8c0.2-0.6,0.2-1.4,1.1-1.4c0.7,0,1,0.5,1.2,1.1
	c1.2,3.5,2.5,6.8,3.7,10.3C314,630,314,630.1,314.2,630.6z M308.8,620.3c-0.5,1.4-0.9,2.7-1.5,4.1c-0.5,1.2-0.1,1.5,1,1.6
	c2.1,0.1,2.9-0.5,1.9-2.6C309.7,622.3,309.7,621.2,308.8,620.3z"/>
<path class="st1" d="M290.8,624.6c0-0.1,0-0.1,0-0.2c0-7,0-7,6.7-6.1c0.4,0,1-0.1,1,0.5c0.1,0.9-0.6,0.7-1.1,0.7c-1,0-2.1,0.1-3.1,0
	c-1.9-0.2-2.1,0.7-2.1,2.4c0,1.5,0.4,2,1.9,2c1.2,0,3.9-0.4,3.7,0.5c-0.2,1.6-2.4,0.7-3.5,0.6c-2.2-0.1-2,1.1-2.1,2.7
	c0,1.1,0.6,3.1-0.5,3.1c-1.6,0-0.7-2-0.9-3.1C290.6,626.6,290.8,625.6,290.8,624.6z"/>
<path class="st1" d="M717.1,627.1c-2-0.6-2.7,0.7-3.2,2.6c-0.1,0.6-0.5,1.4-1.2,1.1c-1-0.4-0.2-1.1,0-1.6c1.2-3.2,2.4-6.5,3.6-9.8
	c0.2-0.6,0.4-1.2,1.2-1.2c0.7,0,1,0.6,1.2,1.2c1.2,3.4,2.5,6.7,3.6,10.1c0.1,0.4,0.7,1-0.1,1.2c-0.6,0.1-0.9-0.4-1.1-0.9
	C719.6,627.1,719.6,627.1,717.1,627.1z M719.5,625.8c-0.5-2-1-3.7-2.1-5.5c-0.7,2-1.2,3.6-2,5.5
	C716.9,625.8,718.1,625.8,719.5,625.8z"/>
<path class="st1" d="M489.5,631c-1,0-0.6-0.7-0.5-1.1c1.2-3.5,2.6-7,4-10.5c0.2-0.5,0.5-1,1.1-1s0.9,0.5,1.1,1
	c1.2,3.4,2.5,6.8,3.7,10.3c0.1,0.5,0.6,1.1-0.2,1.4c-0.6,0.2-1-0.5-1.1-1c-0.5-2.2-1.5-3-3.9-3c-1.9,0.1-2.9,0.5-3.4,2.5
	C490.4,630.1,490.2,630.9,489.5,631z M494,619.9c-0.6,1.6-1,2.9-1.5,4.1c-0.6,1.5-0.2,1.9,1.2,1.9c2,0.1,2.6-0.4,1.6-2.4
	C494.8,622.5,494.5,621.3,494,619.9z"/>
<path class="st1" d="M697.9,619.3c-1.2,0.5-2.5,0.2-3.7,0.2c-1.4,0-2.7-0.2-2.7,2.1c0,2.2,1,2.2,2.6,2.2c1.1,0,2.4-0.5,3.6,0.6
	c-1.2,1-2.5,0.6-3.6,0.5c-2.1-0.2-2.5,0.6-2.5,2.6c0,1.1,0.7,3.1-0.7,3.1c-1.4,0-0.6-2-0.6-3c-0.1-2.5,0-5-0.1-7.5
	c-0.1-1.6,0.5-2.1,2-2c2,0.1,3.9,0,5.8,0C697.8,618.5,697.9,618.9,697.9,619.3z"/>
<path class="st1" d="M469.2,624.4c-1.7,0.7-3,0.6-4.1,0.5c-2.4-0.4-2.7,0.9-2.7,3c0,1.6,0.6,2.1,2,2c1.6-0.1,3.2,0,4.9,0.4
	c-2.5,0.9-5,0.6-7.5,0.6c-0.6,0-0.5-0.9-0.5-1.4c0-3.1,0-6.2,0-9.5c0-1.2,0.4-1.9,1.6-1.7c2.1,0.1,4.2-0.2,6.3,0.2
	c0,0.2,0,0.6,0,0.9c-1.6,0-3.2,0.1-4.7,0c-1.9-0.1-1.9,0.9-2,2.4c0,1.5,0.2,2.2,1.9,2.1C465.9,623.8,467.3,623.5,469.2,624.4z"/>
<path class="st1" d="M483.8,618.7c-0.1,0.4-0.2,0.5-0.2,0.5c-3.9-0.2-3.7,2.4-3.5,5.1c0.1,1.7,0,3.5,0,5.2c0,0.5,0.2,1.2-0.5,1.4
	c-0.9,0.1-0.9-0.6-0.9-1.2c0-2.4-0.1-4.7,0-7.2c0.1-2.1-0.4-3.4-2.6-3c-0.2,0-0.6-0.1-0.9-0.9C477.9,618.7,480.7,618.7,483.8,618.7z
	"/>
<path class="st1" d="M513.3,630.6c-2.7,0.7-5,0.2-7.1,0.4c-0.5,0-0.7-0.2-0.7-0.9c0-3.9,0-7.8,0-11.7c1.4,0.1,1.1,0.9,1.2,1.5
	c0,0.5,0,1.1,0,1.6c0,2.5-0.6,5.2,0.2,7.3C507.7,631.4,510.8,628.9,513.3,630.6z"/>
<path class="st1" d="M520.2,618.4c0,2.9,0.1,5.7,0,8.6c-0.1,2.2,0.5,3.2,2.7,2.9c1.1-0.1,2.4,0,3.6,0.4c-2.2,1-4.6,0.6-7,0.6
	c-0.4,0-0.5-0.4-0.5-0.7c0-3.9,0-7.8,0-11.7C519.5,618.4,519.9,618.4,520.2,618.4z"/>
<path class="st1" d="M534.5,624.9c0,1.6,0,3.4,0,5c0,0.5,0.1,1.2-0.7,1.1c-0.5,0-0.7-0.5-0.7-1c0-3.6,0-7.2,0-10.7
	c0-0.5,0.2-0.9,0.7-0.9c0.6,0,0.6,0.5,0.6,1C534.5,621.2,534.5,623,534.5,624.9z"/>
<path class="st1" d="M705.8,624.6c0,1.7,0,3.5,0,5.2c0,0.6-0.1,1.1-0.9,1c-0.6-0.1-0.6-0.6-0.6-1c0-3.5,0-7,0-10.5
	c0-0.6,0.1-1.1,0.9-1c0.6,0.1,0.6,0.6,0.6,1C705.8,621.2,705.8,622.9,705.8,624.6z"/>
<path class="st0" d="M530.4,579.2c4.4,0,8.6,0,12.9,0c0.9,0,2.4-0.7,2.2,1.2c-0.1,1.5-0.2,3.1-2,3.4c-0.9,0.1-1.7,0.1-2.6,0.1
	c-7.8,0-15.7,0-23.5,0c-1.7,0-2.2-0.5-2.2-2.2c0-1.7,0.1-2.6,2.2-2.6C521.8,579.4,526.2,579.2,530.4,579.2z"/>
<path class="st0" d="M264.4,598.3c-4,0-8-0.1-11.8,0c-2.4,0.1-3.4-0.7-3.4-3.4c0.1-4.4,0.1-8.7,0-12.9c0-2.1,0.9-2.7,2.6-2.7
	c8.5,0,16.9,0,25.4,0c1.7,0,2.5,0.9,2.5,2.7c0,4.6,0,9.2,0,13.8c0,2-1,2.6-2.6,2.5C272.8,598.3,268.6,598.3,264.4,598.3z"/>
<path class="st0" d="M584.2,579.2c4.1,0,8.3,0,12.4,0c2,0,3,0.9,2.9,3c0,4.5,0,9.1,0,13.6c0,1.9-0.9,2.6-2.6,2.6
	c-8.5,0-16.9,0-25.4,0c-1.7,0-2.6-0.9-2.6-2.7c0-4.7,0-9.5,0-14.1c0-2.1,1.4-2.4,2.9-2.4C575.9,579.2,580.1,579.2,584.2,579.2z"/>
<path class="st0" d="M692.2,579.2c4.5,0,9,0,13.4,0c1,0,2.5-0.7,2.4,1.4c-0.1,1.6-0.2,3.2-2.1,3.5c-0.5,0.1-1,0.1-1.6,0.1
	c-8.6,0-17.3-0.1-25.9,0.1c-2.2,0-2.2-1-2.4-2.7c-0.1-2,0.5-2.5,2.4-2.5C683,579.4,687.6,579.2,692.2,579.2z"/>
<path class="st0" d="M377.5,590.1c0.1-0.5,0.1-0.7,0.4-1c2.6-3.1,5.2-6.1,8.5-9.8c0,3.7,0,6.7,0,9.8c0,0.9-0.6,1-1.2,1
	C382.5,590.1,380.1,590.1,377.5,590.1z"/>
<path class="st0" d="M546.9,619.4c1.9,0,3.2,0.9,3.9,2.6c0.7,2.1,0.7,4.1-0.4,6.1c-0.2,0.4-0.6,0.6-1.1,0.4c-1.1-0.6-2.1-1.2-1.1,1
	c0.4,0.7-0.7,0.6-1.2,0.6c-2.5,0.1-4.2-1.9-4.2-5.1C542.6,621.5,544.2,619.4,546.9,619.4z"/>
<path class="st0" d="M665.8,624.6c0,3.2-1.7,5.4-4.4,5.4c-2.5,0-4.2-2.1-4.2-5.2c0-3.2,1.6-5.5,4.2-5.5
	C664.2,619.3,665.8,621.3,665.8,624.6z"/>
<path class="st0" d="M665.8,624.6c0,3.2-1.7,5.4-4.4,5.4c-2.5,0-4.2-2.1-4.2-5.2c0-3.2,1.6-5.5,4.2-5.5
	C664.2,619.3,665.8,621.3,665.8,624.6z"/>
<path class="st0" d="M601,624.9c0-0.6-0.1-1.4,0-1.9c0.2-1.1-0.7-3,1-3.2c2-0.2,4.2-0.5,5.5,1.7c1.1,2,1,4.2,0.1,6.3
	c-0.7,1.9-2.6,2-4.2,2.2c-1.7,0.2-2.6-0.4-2.4-2.4C601,626.8,601,625.8,601,624.9z"/>
<path class="st0" d="M346.1,624.6c0,3.4-1.6,5.5-4.2,5.5s-4.4-2.1-4.2-5.5c0-3.2,1.6-5.2,4.1-5.4
	C344.5,619.3,346.1,621.3,346.1,624.6z"/>
<path class="st0" d="M421.5,619.5c2.1,0.1,4.2,0,4.1,2.5c-0.1,2.5-2.4,2.1-4.1,2.4c-2,0.2-2-1-2.1-2.5
	C419.4,619.9,420.2,619.2,421.5,619.5z"/>
<path class="st0" d="M308.8,620.4c0.9,0.9,1,2,1.4,3c1.1,2.2,0.4,2.9-1.9,2.6c-1.1-0.1-1.6-0.2-1-1.6
	C307.9,623.2,308.3,621.8,308.8,620.4z"/>
<path class="st0" d="M719.5,625.8c-1.4,0-2.6,0-4.1,0c0.6-1.9,1.2-3.6,2-5.5C718.5,622,719,623.8,719.5,625.8z"/>
<path class="st0" d="M494,620c0.5,1.4,0.9,2.6,1.4,3.6c1,2,0.4,2.5-1.6,2.4c-1.5-0.1-1.9-0.5-1.2-1.9C493,622.9,493.4,621.7,494,620
	z"/>
</svg>
