<?xml version="1.0" encoding="utf-8"?>
<!-- Generator: Adobe Illustrator 23.0.3, SVG Export Plug-In . SVG Version: 6.00 Build 0)  -->
<svg version="1.1" id="Calque_1" xmlns="http://www.w3.org/2000/svg" xmlns:xlink="http://www.w3.org/1999/xlink" x="0px" y="0px"
	 viewBox="0 0 595.3 841.9" style="enable-background:new 0 0 595.3 841.9;" xml:space="preserve">
<style type="text/css">
	.st0{fill:none;}
	.st1{fill:#646467;}
</style>
<path class="st0" d="M142,480.9c-15.3,0-30.7,0-46,0c0-3.5-0.4-7,0-10.5c0.5-4.4-1.3-5.2-5.3-5.1c-16.3,0.2-32.6-0.1-49,0.2
	c-4.1,0.1-6.5-0.6-5.5-5.3c0.2-0.8,0.1-1.7,0-2.5c-0.7-3.8,1-4.7,4.7-4.6c14.7,0.2,29.3,0.1,44,0.1c11.2,0,11,0,11.2-11.1
	c0-3.6-1.1-4.4-4.5-4.3c-16.8,0.2-33.7-0.2-50.5,0.2c-5.4,0.1-4.7-2.6-5-6c-0.3-4.2,1-5.3,5.2-5.2c14.7,0.3,29.3,0.1,44,0.1
	c10.8,0,10.6,0,10.8-11c0.1-3.7-0.8-4.8-4.6-4.8c-24.2,0.2-48.3,0.1-72.5,0.1c-1.4,0-3-0.7-4.2,0.8c-0.2-0.3-0.5-0.7-0.7-1
	c0-46.6,0.1-93.2-0.1-139.8c0-3.8,1.1-4.2,4.4-4.2c92.6,0.1,185.1,0.1,277.7,0.1c-13.2,21.4-26.4,42.9-40,65c7.5,0,14.2,0,21,0
	c1.5,0,2.4-0.5,3.2-1.8c11.9-19,23.8-38,35.8-57c1.2-1.9,1.1-2.7-1.2-3.5c-2.9-1.1-6.2-0.8-8.8-2.7c90.6,0,181.1,0,271.7-0.1
	c3.4,0,4.5,0.4,4.5,4.2c-0.2,41.6-0.1,83.2-0.1,124.8c-0.3,0.3-0.6,0.5-0.9,0.8c-0.2-0.4-0.3-0.9-0.5-1.3c-1.3,0.8-0.2,1.9-0.3,2.8
	l0,0.3c-0.1,0.7-0.5,1.4,0.2,2c0.2-0.4,0.4-0.8,0.6-1.2c0.3,0.2,0.6,0.3,0.9,0.5c0,7.7,0,15.3,0,23c-0.2,0.2-0.5,0.5-0.7,0.7
	c-1.9-7.2-8.4-12.3-17.7-12.5c-17.6-0.3-35.3-0.4-52.9,0c-12.6,0.3-18.2,6.8-18.2,19.2c0,8.5,0.6,17-0.1,25.5
	c-1,11.7,1.2,21,13.7,25.1c-8.7,0-17.3,0-26,0c-0.1-3.7-0.4-7.4-0.1-11c0.4-3.9-1.2-4.7-4.8-4.6c-16.3,0.2-32.6-0.1-49,0.2
	c-4.6,0.1-5.5-1.3-5.3-5.5c0.3-8.8,0.1-17.6,0.1-26.5c0-6.8,0-6.8,6.8-6.8c16.2,0,32.3,0,48.5,0c1.9,0,4.1,0.2,3.5-2.6
	c-0.8-4.3,2.1-9.1-1.7-13c-0.2-0.2-0.6-0.1-1-0.1c-20.2,0-40.3-0.4-60.4,0.2c-12.5,0.4-17.8,6.8-17.7,19c0,11.3,0.4,22.7,0,34
	c-0.2,7.5,3.3,11.8,9.7,14.6c1.4,0.6,3.3,0.4,4.3,2c-9,0-18,0-27,0c0.1-22.3,0.1-44.6,0.3-66.9c0-2.6-1.1-3-3.3-3
	c-5.2,0.1-10.3,0.2-15.5,0c-2.7-0.1-3.5,0.9-3.4,3.5c0.2,4.5,0.1,9,0.1,13.5c0,8.2,0,16.4,0,25.6c-12.2-11.2-24.2-21.1-34.8-32.2
	c-7.8-8.1-16-11.9-27.2-10.5c-4,0.5-4.8,1.5-4.8,5.2c0.2,19.8,0.1,39.6,0.1,59.4c0,1.8,0.4,3.7-0.5,5.4c-2.3,0-4.7,0-7,0
	c-12-19.1-24.7-37.8-35.9-57.4c-5.6-9.9-12.1-14.6-23.4-12.6c-2.8,0.5-4.7,0.8-6.4,3.5c-13.2,21.1-26.7,42-40,63.1
	c-0.7,1-2,1.9-1.4,3.5c-6.3,0-12.7,0-19,0c0-16.8,0-33.6-0.1-50.4c0-3.2,0.9-3.9,3.9-3.8c6.1,0.2,12.3,0.1,18.5,0.1
	c11,0,10.7,0,11-10.7c0.1-4.4-1.4-5.1-5.4-5c-24,0.2-47.9,0.1-71.9,0.1c-12.1,0-12.1,0-11.7,12.1c0.1,2.8,0.8,3.7,3.7,3.7
	c8.3-0.2,16.6,0.1,25-0.1c3.8-0.1,5.1,0.7,5,4.8C141.8,447.9,142,464.4,142,480.9z M338.7,311.7c2.8,0,5.7,0.2,8.5-0.1
	c1.6-0.2,5,1.5,4.6-1.6c-0.3-2.8,0.1-7.5-4.5-7.6c-10.8-0.3-21.7-0.8-32.2,2.6c-4.7,1.5-9.9,2.9-12.8,7.2
	c-7.3,11.1-14.3,22.5-21.4,33.7c-1.3,2.1-0.9,2.9,1.6,2.9c5.2-0.1,10.3-0.2,15.5,0c3,0.1,4.8-0.8,6.4-3.5
	c4.6-7.7,10.1-14.9,14.3-22.8C323.1,314.1,328.6,309,338.7,311.7z M242,334.8c2.3,28.3,29.1,54,64.8,48.8
	c24.1-3.5,48.7-28.6,45.7-47.2c-10,26-28.4,40.6-55.8,40.2C269.2,376.1,251.3,360.6,242,334.8z M576,398.2c-0.3-0.2-0.6-0.6-0.9-0.7
	c-0.6,0-1.4,0-1.6,0.4c-0.4,0.6,0.4,0.6,0.8,0.8C574.9,398.9,575.6,399.2,576,398.2z M572.4,394.3c1.4,0.5,2.2,0.8,2.9-0.2
	C574.5,394.2,573.8,394.2,572.4,394.3z M577.2,398.2c0.9-1.3,1.1-2.2,0-3.3C577.2,396,577.2,396.8,577.2,398.2z"/>
<path class="st1" d="M506,480.9c-12.4-4.1-14.7-13.4-13.7-25.1c0.7-8.4,0.1-17,0.1-25.5c0-12.4,5.6-18.8,18.2-19.2
	c17.6-0.5,35.3-0.4,52.9,0c9.3,0.2,15.8,5.2,17.7,12.5c0,14.9,0,29.7,0,44.6c-0.4,4.2-3.1,6.9-6.5,8.9c-2.5,1.5-5.2,2.5-7.8,3.8
	C546.7,480.9,526.3,480.9,506,480.9z M537,465.2c6.2,0,12.3-0.2,18.5,0.1c3,0.1,4-0.7,3.9-3.9c-0.2-10.3-0.1-20.6,0-31
	c0-2.6-0.4-3.8-3.5-3.8c-12.7,0.2-25.3,0.1-38,0c-2.6,0-3.5,0.7-3.4,3.3c0.1,10.7,0.1,21.3,0,32c0,2.7,1,3.4,3.5,3.3
	C524.4,465.1,530.7,465.2,537,465.2z"/>
<path class="st1" d="M14.7,411.9c1.1-1.5,2.8-0.8,4.2-0.8c24.2,0,48.3,0.1,72.5-0.1c3.9,0,4.7,1.1,4.6,4.8c-0.2,11,0,11-10.8,11
	c-14.7,0-29.3,0.2-44-0.1c-4.2-0.1-5.5,1.1-5.2,5.2c0.3,3.4-0.4,6.1,5,6c16.8-0.4,33.6-0.1,50.5-0.2c3.4,0,4.5,0.7,4.5,4.3
	c-0.1,11.1,0,11.1-11.2,11.1c-14.7,0-29.3,0.1-44-0.1c-3.7-0.1-5.4,0.8-4.7,4.6c0.1,0.8,0.2,1.7,0,2.5c-0.9,4.7,1.4,5.4,5.5,5.3
	c16.3-0.2,32.6,0.1,49-0.2c4-0.1,5.8,0.7,5.3,5.1c-0.4,3.5,0,7,0,10.5c-27,0-54,0-81,0C14.9,457.9,14.8,434.9,14.7,411.9z"/>
<path class="st1" d="M297,480.9c0.9-1.7,0.5-3.6,0.5-5.4c0-19.8,0.1-39.6-0.1-59.4c0-3.7,0.8-4.7,4.8-5.2
	c11.2-1.3,19.4,2.5,27.2,10.5c10.7,11.1,22.6,21,34.8,32.2c0-9.2,0-17.4,0-25.6c0-4.5,0.1-9-0.1-13.5c-0.1-2.6,0.7-3.6,3.4-3.5
	c5.2,0.2,10.3,0.1,15.5,0c2.2,0,3.3,0.4,3.3,3c-0.2,22.3-0.2,44.6-0.3,66.9c-6.7,0-13.3,0-20,0c-15.3-14-30.7-28-47-42.9
	c0,15.4,0,29.2,0,42.9C311.7,480.9,304.3,480.9,297,480.9z"/>
<path class="st1" d="M183,480.9c-0.7-1.6,0.7-2.4,1.4-3.5c13.3-21,26.8-42,40-63.1c1.6-2.6,3.6-3,6.4-3.5
	c11.3-1.9,17.8,2.8,23.4,12.6c11.2,19.6,23.8,38.3,35.9,57.4c-8,0-16,0-24,0c-2.2-3.5-4.5-6.9-6.6-10.5c-1.1-2-2.4-2.7-4.7-2.7
	c-12.4,0.1-24.9,0.1-37.3,0.1c-1.5,0-2.9-0.1-3.8,1.6c-2.1,3.9-5.1,7.3-6.6,11.6C199,480.9,191,480.9,183,480.9z M224.9,451.6
	c7.8,0,14.9,0,22.5,0c-3.8-6.1-7.3-11.6-11.2-17.7C232.3,440,228.7,445.6,224.9,451.6z"/>
<path class="st1" d="M413.2,480.2c-1.5-0.3-2.9-0.7-4.3-1.2c-6.1-2.4-10.2-8.1-10-14.7c0.4-11.3,0-22.6,0-34
	c0-12.3,5.3-18.7,17.7-19c20.1-0.6,40.3-0.2,60.4-0.2c0.3,0,0.8-0.1,1,0.1c3.7,3.9,0.9,8.7,1.7,13c0.5,2.8-1.7,2.6-3.5,2.6
	c-16.2,0-32.3,0-48.5,0c-6.8,0-6.8,0-6.8,6.8c0,8.8,0.2,17.7-0.1,26.5c-0.2,4.2,0.7,5.6,5.3,5.5c16.3-0.3,32.6,0,49-0.2
	c3.6,0,5.2,0.7,4.8,4.6c-0.2,1.7-0.2,3.5-0.2,5.2c0,0.8,0,1.7,0.1,2.5c0,0.6,0.4,2.1,0.1,2.7c-0.3,0.6-1.1,0.4-1.9,0.4
	c-0.9,0-1.8,0-2.8,0c-1.8,0-3.5,0-5.3,0c-7.1,0-14.2,0.1-21.3,0.1c-7.9,0-15.9,0.1-23.8,0.1C421,481,417,481,413.2,480.2z"/>
<path class="st1" d="M142,480.9c0-16.5-0.2-32.9,0-49.4c0.1-4.1-1.3-4.9-5-4.8c-8.3,0.3-16.6,0-25,0.1c-2.9,0.1-3.6-0.9-3.7-3.7
	C108,411,107.9,411,120,411c24,0,47.9,0.1,71.9-0.1c3.9,0,5.5,0.6,5.4,5c-0.3,10.7-0.1,10.7-11,10.7c-6.2,0-12.3,0.2-18.5-0.1
	c-3-0.1-4,0.6-3.9,3.8c0.2,16.8,0.1,33.6,0.1,50.4C156.7,480.9,149.3,480.9,142,480.9z"/>
<path class="st1" d="M306.4,267.6c3.7,0.8,5.4,1.1,8.4,2c2.4,0.7,2.4,1.7,1.2,3.5c-12,19-23.9,38-35.8,57c-0.8,1.3-1.8,1.8-3.2,1.8
	c-6.7,0-13.5,0-21,0c13.6-22.1,26.8-43.5,40-65C299.3,266.8,303.1,267.2,306.4,267.6z"/>
<path class="st0" d="M319,480.9c0-13.8,0-27.5,0-42.9c16.3,14.9,31.7,28.9,47,42.9C350.3,480.9,334.7,480.9,319,480.9z"/>
<path class="st0" d="M207,480.9c1.4-4.3,4.5-7.6,6.6-11.6c0.9-1.7,2.3-1.6,3.8-1.6c12.4,0,24.9,0.1,37.3-0.1c2.3,0,3.6,0.7,4.7,2.7
	c2.1,3.6,4.4,7,6.6,10.5C246.3,480.9,226.7,480.9,207,480.9z"/>
<path class="st1" d="M14.7,411.9c0.1,23,0.2,46,0.3,69c-2.1-0.9-0.9-2.7-0.9-4c-0.1-22-0.1-44-0.1-66
	C14.2,411.2,14.5,411.6,14.7,411.9z"/>
<path class="st0" d="M567,480.9c2.6-1.2,5.3-2.3,7.8-3.8c3.4-2,6.1-4.7,6.5-8.9c0.2,0.2,0.5,0.5,0.7,0.7c0,4,0,8,0,12c-4,0-8,0-12,0
	C569,480.9,568,480.9,567,480.9z"/>
<path class="st0" d="M582,468.9c-0.2-0.2-0.5-0.5-0.7-0.7c0-14.9,0-29.7,0-44.6c0.2-0.2,0.5-0.5,0.7-0.7
	C582,438.2,582,453.6,582,468.9z"/>
<path class="st1" d="M338.7,311.3c-2.3-0.1-4.7-0.1-7,0.2c-2.2,0.3-4.5,0.9-6.3,2.2c-2.5,1.7-4.2,4.5-5.8,7.1
	c-2.5,4.2-4.8,8.7-7.6,12.8c-2.6,3.9-5.2,7.8-7.7,11.8c-1.6,2.6-3.4,3.6-6.4,3.5c-5.1-0.2-10.3-0.1-15.5,0c-2.5,0-3-0.7-1.6-2.9
	c7.1-11.2,14.1-22.6,21.4-33.7c2.9-4.4,8-5.7,12.8-7.2c10.5-3.3,21.4-2.9,32.2-2.6c4.6,0.1,4.2,4.8,4.5,7.6c0.2,1.5-1.2,1.8-2.4,1.8
	C345.8,311.9,342.3,311.5,338.7,311.3z"/>
<path class="st1" d="M242,334.8c9.3,25.8,27.2,41.3,54.8,41.7c27.4,0.5,45.7-14.2,55.8-40.2c2.9,18.6-21.6,43.7-45.7,47.2
	C271.1,388.8,244.3,363.2,242,334.8z"/>
<path class="st0" d="M537,465.2c-6.3,0-12.7-0.1-19,0c-2.5,0.1-3.5-0.6-3.5-3.3c0.1-10.7,0.1-21.3,0-32c0-2.7,0.9-3.4,3.4-3.3
	c12.7,0.1,25.3,0.1,38,0c3.1,0,3.5,1.2,3.5,3.8c-0.1,10.3-0.2,20.6,0,31c0.1,3.1-0.9,4-3.9,3.9C549.3,465,543.2,465.2,537,465.2z"/>
<path class="st0" d="M224.9,451.6c3.9-6,7.4-11.6,11.3-17.7c3.9,6.1,7.4,11.6,11.2,17.7C239.8,451.6,232.7,451.6,224.9,451.6z"/>
</svg>
