<?xml version="1.0" encoding="utf-8"?>
<!-- Generator: Adobe Illustrator 23.0.3, SVG Export Plug-In . SVG Version: 6.00 Build 0)  -->
<svg version="1.1" id="Calque_1" xmlns="http://www.w3.org/2000/svg" xmlns:xlink="http://www.w3.org/1999/xlink" x="0px" y="0px"
	 viewBox="0 0 595.3 841.9" style="enable-background:new 0 0 595.3 841.9;" xml:space="preserve">
<style type="text/css">
	.st0{fill:#676766;}
	.st1{fill:#FFFFFF;}
</style>
<g id="Ebene_2">
	<g id="Ebene_1-2">
		<polygon class="st0" points="14.1,356.6 14.1,485.3 581.1,485.3 581.1,356.6 		"/>
		<path class="st1" d="M44.6,393.8h9.6v28.1h0.2l10.3-11.4h10.8L62,425.3l14.4,18.8h-11l-11.1-14.9h-0.2v14.9h-9.6L44.6,393.8z"/>
		<path class="st1" d="M81.2,393.8h9.6v39.6c0,2.2,0.9,2.8,2.5,2.8c0.7,0,1.4-0.2,2.1-0.4l1.9,7.5c-2.2,0.9-4.5,1.2-6.8,1.2
			c-6,0-9.2-3-9.2-8.6L81.2,393.8L81.2,393.8z"/>
		<path class="st1" d="M101.1,427.2c0-10.1,6.9-17.5,17.2-17.5c10.2,0,17.2,7.4,17.2,17.5s-6.9,17.6-17.2,17.6
			C108,444.8,101.1,437.3,101.1,427.2z M125.6,427.2c0-5.7-2.3-9.9-7.4-9.9c-5.1,0-7.5,4.2-7.5,9.9s2.4,10,7.5,10
			C123.3,437.1,125.6,432.9,125.6,427.2z"/>
		<path class="st1" d="M150.1,430c0.2,4.7,3.8,7.3,8.9,7.3c3,0.1,6-0.7,8.6-2.3l2.8,6.5c-3.7,2.3-8,3.4-12.3,3.3
			c-12.8,0-17.7-8.4-17.7-17.2c0-10.1,5.5-17.9,15.6-17.9c9.7,0,15.4,6.9,15.4,18.1v2.2H150.1z M161.9,423.6c-0.2-3.3-1.8-6.7-6-6.7
			c-3.9,0-5.9,3.2-5.9,6.7H161.9z"/>
		<path class="st1" d="M176.5,427.4c-0.2-9.7,7.6-17.7,17.2-17.8c0.3,0,0.5,0,0.9,0c3.3-0.1,6.5,0.7,9.3,2.4v8
			c-2.3-1.9-5.2-2.8-8.3-2.8c-5.9,0-9.3,4.4-9.3,10.1c0,6.3,3.6,9.7,9,9.7c2.8,0,5.4-0.8,7.7-2.3l2.7,6.5c-3.5,2.3-7.6,3.5-11.7,3.4
			C182.7,444.8,176.5,437.3,176.5,427.4z"/>
		<path class="st1" d="M210.9,393.8h9.6v28.1h0.2l10.3-11.4h10.8l-13.5,14.8l14.4,18.8h-10.9l-11.2-14.9h-0.2v14.9h-9.5V393.8z"/>
		<path class="st1" d="M247.2,410.5h8.2l1,3.6c3.1-2.8,7.2-4.4,11.4-4.4c5.4,0,11,2.3,11,12.4v22h-9.6v-19.1c0-3.7-0.7-6.9-4.8-6.9
			c-2.8,0.2-5.4,1.2-7.6,3v23.1h-9.6V410.5z"/>
		<path class="st1" d="M294.7,430c0.2,4.7,3.8,7.3,8.9,7.3c3,0.1,6-0.7,8.6-2.3l2.8,6.5c-3.7,2.1-7.9,3.3-12.2,3.2
			c-12.8,0-17.7-8.4-17.7-17.2c0-10.1,5.5-17.9,15.6-17.9c9.8,0,15.5,6.8,15.5,18.1v2.2L294.7,430L294.7,430z M306.5,423.6
			c-0.2-3.3-1.8-6.7-6-6.7c-3.9,0-5.9,3.2-5.9,6.7H306.5z"/>
		<path class="st1" d="M322.5,410.5h8.1l1.1,3.6c2.8-2.7,5.5-4.4,9.2-4.4c1.8,0,3.6,0.5,5.1,1.6l-3.4,7.9c-1.2-0.8-2.8-1.2-4.3-1.2
			c-2.3,0.1-4.6,1.1-6.2,2.8v23.3h-9.6L322.5,410.5L322.5,410.5z"/>
		<path class="st1" d="M366,410.5h4.4l0.6,4.4c3.1-3.1,7.3-4.9,11.6-5.2c3.8-0.2,7.3,2.1,8.6,5.8c4-3.6,8.3-5.8,12.4-5.8
			c5.4,0,10,3.5,10,11.7v22.6h-5.2v-21c0-4.9-1.2-8.7-5.9-8.7c-3.6,0-7.1,2.2-10.3,5c0.1,0.7,0.2,1.4,0.2,2v22.7h-5.2v-20.9
			c0-5-1.2-8.8-5.9-8.8c-3.6,0-7.1,2.2-10.2,5v24.7H366L366,410.5z"/>
		<path class="st1" d="M421.5,426.9c0-10.2,5.6-17.2,13.8-17.2c8.5,0,13.3,6.7,13.3,17.2v1.2h-21.8c0.2,6.8,4,12.2,11.2,12.2
			c2.9,0,5.7-0.8,8.3-2.3l1.7,3.6c-3.2,2-6.9,3-10.7,3C426.7,444.8,421.5,436.7,421.5,426.9z M443.2,424.1
			c-0.1-5.1-2.6-10.2-7.9-10.2c-5.1,0-8.3,4.6-8.4,10.2H443.2z"/>
		<path class="st1" d="M459.1,436.9v-22.2h-5.7v-4.3h5.7v-7.6l5.2-1.7v9.3h10l-1.6,4.3h-8.4v21.3c0,2.9,1.2,4.2,3.5,4.2
			c2-0.1,3.8-0.7,5.4-1.9l1.9,3.6c-2.5,1.7-5.4,2.7-8.4,2.7C461.8,444.8,459.1,441.9,459.1,436.9z"/>
		<path class="st1" d="M500.3,440.3c-2.7,2.8-6.2,4.4-10,4.4c-5.5,0.4-10.2-3.7-10.7-9.2c0-0.4,0-0.8,0-1.2c-0.2-3.9,2-7.6,5.7-9.1
			c2.7-1.2,5.5-1.7,8.4-1.6l6.4-0.2v-2.1c0-5.1-3-7.4-7.2-7.4c-3.3,0-6.5,1-9.2,2.8l-2-3.6c3.6-2.2,7.6-3.4,11.7-3.4
			c6.9,0,11.9,3.4,11.9,11.4v11.6c-0.2,3.8,0,7.6,0.6,11.4h-4.6L500.3,440.3z M494,427.7c-2.1-0.1-4.4,0.4-6.3,1.2
			c-1.9,1.1-3,3-2.9,5.2c-0.2,3.2,2.2,6,5.5,6.2c0.3,0,0.5,0,0.7,0c3.5-0.2,6.7-1.8,8.9-4.4v-8.5L494,427.7z"/>
		<path class="st1" d="M514.7,393.8h5.2v42.5c0,2.8,0.9,3.6,2.7,3.6c0.7-0.1,1.4-0.3,2-0.5l1.2,4.1c-1.5,0.6-3.1,1-4.7,1
			c-4.3,0-6.3-2.5-6.3-6.5L514.7,393.8z"/>
		<path class="st1" d="M530.9,437.9c2.5,1.6,5.4,2.5,8.4,2.5c3.9,0,7.2-1.6,7.2-5.4c0-7.3-15.6-5-15.6-16.1c0-5.1,3.9-9.2,11.4-9.2
			c2.8,0,5.7,0.5,8.3,1.6v4.6c-2.5-1.2-5.3-1.8-8.1-1.9c-3.2,0-6.5,1.1-6.5,4.7c0,7.5,15.8,4.9,15.8,16.3c0,6.7-5.5,9.9-12.4,9.9
			c-3.6,0-7-1-10-2.8L530.9,437.9z"/>
	</g>
</g>
</svg>
