<?xml version="1.0" encoding="utf-8"?>
<!-- Generator: Adobe Illustrator 23.0.3, SVG Export Plug-In . SVG Version: 6.00 Build 0)  -->
<svg version="1.1" id="Calque_1" xmlns="http://www.w3.org/2000/svg" xmlns:xlink="http://www.w3.org/1999/xlink" x="0px" y="0px"
	 viewBox="0 0 595.3 841.9" style="enable-background:new 0 0 595.3 841.9;" xml:space="preserve">
<style type="text/css">
	.st0{fill-rule:evenodd;clip-rule:evenodd;fill:#676766;}
	.st1{filter:url(#Adobe_OpacityMaskFilter);}
	.st2{fill-rule:evenodd;clip-rule:evenodd;fill:#FFFFFF;}
	.st3{mask:url(#mask-2_2_);fill-rule:evenodd;clip-rule:evenodd;fill:#676766;}
	.st4{filter:url(#Adobe_OpacityMaskFilter_1_);}
	.st5{mask:url(#mask-4_2_);fill-rule:evenodd;clip-rule:evenodd;fill:#676766;}
</style>
<g id="Group" transform="translate(0.000000, 0.980000)">
	<polygon id="Fill-1" class="st0" points="38.2,379 14.2,419.6 38.2,460.1 59.9,460.1 67.3,448.1 59.5,435.5 53,435.5 43.5,419.6 
		53,403.6 59.9,403.6 52.2,391.3 59.8,379 	"/>
	<polygon id="Fill-2" class="st0" points="65.3,379 57.7,391.3 65.3,403.6 71.9,403.6 81.3,419.6 71.9,435.5 65,435.5 72.8,448.1 
		65.4,460.1 86.2,460.1 110.2,419.6 86.2,379 	"/>
</g>
<polygon id="Fill-3" class="st0" points="126.5,379.1 126.5,459.8 182.6,459.8 182.6,433.9 157,433.9 157,379.1 "/>
<g id="Group-14" transform="translate(49.000000, 0.000000)">
	<g id="Group-6">
		<g id="Clip-5">
		</g>
		<defs>
			<filter id="Adobe_OpacityMaskFilter" filterUnits="userSpaceOnUse" x="141.9" y="377.7" width="91.3" height="84.1">
				<feColorMatrix  type="matrix" values="1 0 0 0 0  0 1 0 0 0  0 0 1 0 0  0 0 0 1 0"/>
			</filter>
		</defs>
		<mask maskUnits="userSpaceOnUse" x="141.9" y="377.7" width="91.3" height="84.1" id="mask-2_2_">
			<g class="st1">
				<polygon id="path-1_2_" class="st2" points="141.9,377.7 233.1,377.7 233.1,461.8 141.9,461.8 				"/>
			</g>
		</mask>
		<path id="Fill-4" class="st3" d="M187.5,377.7c-25.1,0-45.6,16.7-45.6,42.3c0,26.2,20.5,41.8,45.6,41.8s45.6-15.7,45.6-41.8
			C233.1,394.3,212.6,377.7,187.5,377.7 M187.5,404.5c9.5,0,15.4,7.2,15.4,15.9c0,9.3-6.3,15.7-15.4,15.7s-15.4-6.4-15.4-15.7
			C172.1,411.8,178,404.5,187.5,404.5"/>
	</g>
	<path id="Fill-7" class="st0" d="M320,379l-25.8,38.2l29.4,43.4h-34.1l-9.4-17.3c-0.9-1.6-1.4-3.2-1.8-5h-0.9
		c-0.5,1.9-1.3,3.8-2.3,5.6l-9.2,16.7h-34.1l28.9-43.4L234.7,379h33.8l6.1,11.6c1.2,2.2,1.9,4.4,2.5,6.7h0.7
		c0.5-2.4,1.5-4.5,2.6-6.7l5.7-11.6H320z"/>
	<path id="Fill-9" class="st0" d="M360.3,450.4h22.7l2.7,10.2h31.7L388,379h-33.2l-28.7,81.5h31.7L360.3,450.4z M365.7,431l5.5-24.9
		h1.1c0.5,3.5,1.1,7,2,10.5l3.5,14.4H365.7z"/>
	<g id="Group-13" transform="translate(77.724661, 0.650911)">
		<g id="Clip-12">
		</g>
		<defs>
			<filter id="Adobe_OpacityMaskFilter_1_" filterUnits="userSpaceOnUse" x="342.5" y="378.3" width="111.8" height="81.5">
				<feColorMatrix  type="matrix" values="1 0 0 0 0  0 1 0 0 0  0 0 1 0 0  0 0 0 1 0"/>
			</filter>
		</defs>
		<mask maskUnits="userSpaceOnUse" x="342.5" y="378.3" width="111.8" height="81.5" id="mask-4_2_">
			<g class="st4">
				<polygon id="path-3_2_" class="st2" points="342.5,378.3 454.4,378.3 454.4,459.9 342.5,459.9 				"/>
			</g>
		</mask>
		<path id="Fill-11" class="st5" d="M355.9,378.3h30.9l11.4,42.8h0.8c0.5-3.6,1.1-7.4,2.1-10.8l9.3-32h30.5l13.6,81.5h-29l-4-44.7
			h-0.5c-0.5,2.7-1.1,5.5-2,8.1l-11.9,36.6h-17.5l-10.7-34.5c-0.9-3.5-1.6-6.7-1.9-10.2h-1c-0.2,3.2-0.4,6.6-0.8,9.8l-3.5,34.8h-29
			L355.9,378.3z"/>
	</g>
</g>
</svg>
