<?xml version="1.0" encoding="utf-8"?>
<!-- Generator: Adobe Illustrator 23.0.3, SVG Export Plug-In . SVG Version: 6.00 Build 0)  -->
<svg version="1.1" id="Calque_1" xmlns="http://www.w3.org/2000/svg" xmlns:xlink="http://www.w3.org/1999/xlink" x="0px" y="0px"
	 viewBox="0 0 595.3 841.9" style="enable-background:new 0 0 595.3 841.9;" xml:space="preserve">
<style type="text/css">
	.st0{fill:#686867;}
</style>
<path class="st0" d="M298.4,443.6c39.1,0,70.9-31.8,70.9-70.9s-31.8-70.9-70.9-70.9s-70.9,31.8-70.9,70.9
	C227.5,411.8,259.3,443.6,298.4,443.6"/>
<rect x="187.6" y="453" class="st0" width="222.8" height="25.3"/>
<polygon class="st0" points="371.4,293.8 371.4,250.1 347.4,250.1 347.4,279.8 298.1,250.1 187.4,316.9 187.4,345.8 298.1,279 
	410.2,345.8 410.2,316.9 "/>
<rect x="187.4" y="489.1" class="st0" width="24.2" height="45.3"/>
<path class="st0" d="M216.7,489.1v27.8h11c8.4,0,15.1-6.7,15.1-15.1s-6.7-12.7-15.1-12.7C227.8,489.1,216.7,489.1,216.7,489.1z"/>
<polygon class="st0" points="293.2,534.4 293.2,489.1 269,489.1 269,534.4 "/>
<rect x="351.4" y="489.1" class="st0" width="24.2" height="45.3"/>
<path class="st0" d="M328.3,534.4h-29.9v-45.3h12.9c8.4,0,15.1,6.5,15.1,14.8c0,8.6-7,11.3-14.8,14.5L328.3,534.4z"/>
<path class="st0" d="M380.8,489.1v45.3h17c7,0,12.7-5.7,12.7-12.7c0-4.8-2.4-8.9-6.5-11c3.2-2.2,5.4-5.7,5.4-10
	c0-6.5-5.4-11.9-11.9-11.9h-16.7V489.1z"/>
<path class="st0" d="M36.7,569.1c1.3,0,3.2-0.3,3.2-4c0-3.8-1.6-4-3-4h-1.9v8.1H36.7z M35.1,593.1h-6.5v-41.5H37
	c2.2,0,4.3,0,6.2,2.2c1.9,2.4,3,6.5,3,10.8c0,4-0.8,7.8-2.4,10.2c-1.6,2.7-3.8,3.2-5.7,3.2h-3V593.1z"/>
<path class="st0" d="M53.4,568.6c0.5-4.3,1.6-7.3,4-7h0.8v10.8c-0.3-0.3-0.8-0.3-1.1-0.3c-1.1,0-1.9,0.3-2.4,2.2
	c-0.5,1.6-0.5,3.5-0.5,5.4v13.5h-5.9v-31h5.1V568.6L53.4,568.6z"/>
<path class="st0" d="M65.6,577.5c0,8.4,1.1,8.9,2.2,8.9c1.1,0,2.2-0.5,2.2-8.9c0-3,0-8.4-2.2-8.4C65.6,569.1,65.6,574.5,65.6,577.5
	 M76.1,578c0,9.4-3.8,15.9-8.6,15.9s-8.6-6.5-8.6-15.9c0-10,3.8-16.4,8.6-16.4C72.6,561.6,76.1,568,76.1,578"/>
<path class="st0" d="M87.1,574c0-1.1,0-2.7-0.3-3.8c-0.3-0.8-0.8-1.1-1.3-1.1c-1.1,0-1.6,1.3-1.6,3.2c-0.3,1.6-0.3,4-0.3,5.7
	c0,2.7,0,7.5,1.9,7.5c0.5,0,1.1-0.5,1.3-1.6c0.5-1.3,0.3-2.4,0.3-4V574z M87.4,593.1v-4l0,0c-0.8,3.5-2.2,4.8-4,4.8
	c-4.6,0-5.9-8.4-5.9-15.9c0-7.8,1.6-16.2,6.2-16.2c1.6,0,2.7,1.3,3.8,3.2v-13.2h5.9v41.5h-5.9V593.1z"/>
<path class="st0" d="M104.9,593.1V588l0,0c-0.5,4-2.7,5.7-4.6,5.7c-1.3,0-2.4-0.5-3.5-2.4c-1.1-2.2-1.1-4.8-1.1-7.8v-21.3h5.9V581
	c0,1.9,0,4,1.3,4c0.5,0,1.1-0.5,1.3-1.9c0.3-1.1,0.3-2.2,0.3-3.2v-17.8h5.9v31L104.9,593.1L104.9,593.1z"/>
<path class="st0" d="M120,559.2h-5.9v-8.1h5.9V559.2z M120,593.1h-5.9v-31h5.9V593.1z"/>
<path class="st0" d="M121.6,570.2v-7.8h2.4l0.5-10l5.1-0.3v10.2h3v7.8h-3V581c0,2.2,0,4,1.3,4c0.5,0,1.1-0.3,1.6-0.5v8.6l-3.5,0.8
	c-1.6,0.5-3.2-0.5-4.3-3.2c-1.1-2.4-1.1-5.4-1.1-8.9v-11.6H121.6z"/>
<path class="st0" d="M138.9,583.1c0.3,3,1.9,3.2,3.2,3.2c0.5,0,2.4,0,2.4-1.9c0-1.6-2.2-1.9-2.7-1.9c-3.2-0.8-7-2.2-7-10.5
	c0-3.5,0.8-6.2,2.4-8.1c1.6-1.9,3.2-2.4,4.8-2.4c3,0,5.9,2.2,7,8.1l-4.6,1.9c-0.5-2.2-1.6-2.7-2.7-2.7c-0.5,0-1.9,0.3-1.9,1.6
	c0,1.1,0.5,1.3,0.8,1.6c0.5,0.3,1.9,0.5,2.7,0.8c1.3,0.3,3,0.8,4.3,2.4c1.3,1.9,2.2,4.6,2.2,7.8c0,8.6-4.6,11-8.1,11
	c-3.5,0-6.7-2.2-7.8-9.4L138.9,583.1z"/>
<path class="st0" d="M169.6,574c0-1.1,0-2.7-0.3-3.8c-0.3-0.8-0.8-1.1-1.3-1.1c-1.1,0-1.6,1.3-1.6,3.2c-0.3,1.6-0.3,4-0.3,5.7
	c0,2.7,0,7.5,1.9,7.5c0.5,0,1.1-0.5,1.3-1.6c0.5-1.3,0.3-2.4,0.3-4C169.6,579.9,169.6,574,169.6,574z M169.8,593.1v-4l0,0
	c-0.8,3.5-2.2,4.8-4,4.8c-4.6,0-5.9-8.4-5.9-15.9c0-7.8,1.6-16.2,6.2-16.2c1.6,0,2.7,1.3,3.8,3.2v-13.2h5.9v41.5h-5.9V593.1z"/>
<path class="st0" d="M188.2,574c0-3-0.5-5.4-2.2-5.4c-1.6,0-2.2,2.4-2.2,5.4H188.2z M194.1,582.9c-0.8,7.5-4.3,11-7.8,11
	c-2.2,0-4.6-1.1-6.2-4c-1.6-3-2.4-7.3-2.4-11.6s0.8-8.6,2.2-11.6c1.6-3.2,4-4.8,6.2-4.8c5.1,0,8.4,6.7,8.4,17v1.6h-10.2
	c0,3.2,0.5,5.7,2.4,5.7c1.3,0,2.2-1.1,2.4-3.8L194.1,582.9z"/>
<path class="st0" d="M214.3,568.3c1.3,0,3-0.5,3-4c0-1.3-0.3-2.7-1.1-3.5c-0.5-0.5-1.1-0.5-1.9-0.5h-2.7v7.8h2.7V568.3z M217,593.1
	l-3-15.9h-1.9v15.9h-6.5v-41.5h10.5c1.9,0,3.8,0.5,5.4,2.4c1.6,2.2,2.4,5.9,2.4,10c0,5.4-1.3,8.6-3.8,11l3.8,18.1H217z"/>
<path class="st0" d="M236.1,574c0-3-0.5-5.4-2.2-5.4c-1.6,0-2.2,2.4-2.2,5.4H236.1z M242,582.9c-0.8,7.5-4.3,11-7.8,11
	c-2.2,0-4.6-1.1-6.2-4c-1.6-3-2.4-7.3-2.4-11.6s0.8-8.6,2.2-11.6c1.6-3.2,4-4.8,6.2-4.8c5.1,0,8.4,6.7,8.4,17v1.6h-10.2
	c0,3.2,0.5,5.7,2.4,5.7c1.3,0,2.2-1.1,2.4-3.8L242,582.9z"/>
<polygon class="st0" points="253.4,593.1 248.8,593.1 243.1,562.1 249.3,562.1 252,578.6 252.6,575.3 254.7,562.1 259,562.1 "/>
<path class="st0" d="M270.6,558.3l-2.4-3.5l-2.4,3.5H262l6.2-10l6.2,10H270.6z M270.6,574c0-3-0.5-5.4-2.2-5.4
	c-1.6,0-2.2,2.4-2.2,5.4H270.6z M276.5,582.9c-0.8,7.5-4.3,11-7.8,11c-2.2,0-4.6-1.1-6.2-4c-1.6-3-2.4-7.3-2.4-11.6
	s0.8-8.6,2.2-11.6c1.6-3.2,4-4.8,6.2-4.8c5.1,0,8.4,6.7,8.4,17v1.6h-10.2c0,3.2,0.5,5.7,2.4,5.7c1.3,0,2.2-1.1,2.4-3.8L276.5,582.9z
	"/>
<path class="st0" d="M277.3,570.2v-7.8h2.4l0.5-10l5.1-0.3v10.2h3v7.8h-3V581c0,2.2,0,4,1.3,4c0.5,0,1.1-0.3,1.6-0.5v8.6l-3.5,0.8
	c-1.6,0.5-3.2-0.5-4.3-3.2c-1.1-2.4-1.1-5.4-1.1-8.9v-11.6H277.3z"/>
<path class="st0" d="M300.8,574c0-3-0.5-5.4-2.2-5.4c-1.6,0-2.2,2.4-2.2,5.4H300.8z M307,582.9c-0.8,7.5-4.3,11-7.8,11
	c-2.2,0-4.6-1.1-6.2-4c-1.6-3-2.4-7.3-2.4-11.6s0.8-8.6,2.2-11.6c1.6-3.2,4-4.8,6.2-4.8c5.1,0,8.4,6.7,8.4,17v1.6H297
	c0,3.2,0.5,5.7,2.4,5.7c1.3,0,2.2-1.1,2.4-3.8L307,582.9z"/>
<path class="st0" d="M314.5,562.1v4.3l0,0c0.8-3.2,2.4-4.8,4.3-4.8c1.9,0,3.5,1.3,4.3,4.8c1.1-3.5,2.7-4.8,4.6-4.8
	c1.3,0,2.7,0.8,3.5,2.7c1.1,2.4,1.1,5.4,1.1,8.6v20.2h-5.9v-18.6c0-1.9,0-4.3-1.3-4.3c-1.6,0-1.6,3.2-1.6,5.7v17.2h-5.9v-18.6
	c0-1.9,0-4.3-1.3-4.3c-1.3,0-1.6,2.2-1.6,4.3v18.6h-5.7v-31H314.5z"/>
<path class="st0" d="M345.2,574c0-3-0.5-5.4-2.2-5.4c-1.6,0-2.2,2.4-2.2,5.4H345.2z M351.2,582.9c-1.1,7.5-4.3,11-7.8,11
	c-2.2,0-4.6-1.1-6.2-4c-1.6-3-2.4-7.3-2.4-11.6s0.8-8.6,2.2-11.6c1.6-3.2,4-4.8,6.2-4.8c5.1,0,8.4,6.7,8.4,17v1.6h-10.2
	c0,3.2,0.5,5.7,2.4,5.7c1.3,0,2.2-1.1,2.4-3.8L351.2,582.9z"/>
<path class="st0" d="M358.7,562.1v4.3l0,0c0.8-3.5,2.4-4.8,4.3-4.8c1.3,0,3.2,0.8,4,3.2c1.1,2.4,1.1,6.2,1.1,9.2v19.1h-5.9v-18.9
	c0-1.9,0-4.6-1.3-4.6c-1.6,0-1.9,3-1.9,5.4v17.8H353v-31h5.7V562.1z"/>
<path class="st0" d="M369.5,570.2v-7.8h2.4l0.5-10l5.1-0.3v10.2h3v7.8h-3V581c0,2.2,0,4,1.3,4c0.5,0,1.1-0.3,1.6-0.5v8.6l-3.5,0.8
	c-1.6,0.5-3.2-0.5-4.3-3.2c-1.1-2.4-1.1-5.4-1.1-8.9v-11.6H369.5z"/>
<path class="st0" d="M401,574c0-1.1,0-2.7-0.3-3.8c-0.3-0.8-0.8-1.1-1.3-1.1c-1.1,0-1.6,1.3-1.6,3.2c-0.3,1.6-0.3,4-0.3,5.7
	c0,2.7,0,7.5,1.9,7.5c0.5,0,1.1-0.5,1.3-1.6c0.5-1.3,0.3-2.4,0.3-4L401,574L401,574z M401.3,593.1v-4l0,0c-0.8,3.5-2.2,4.8-4,4.8
	c-4.6,0-5.9-8.4-5.9-15.9c0-7.8,1.6-16.2,6.2-16.2c1.6,0,2.7,1.3,3.8,3.2v-13.2h5.9v41.5h-5.9V593.1z"/>
<path class="st0" d="M419.1,593.1V588l0,0c-0.5,4-2.7,5.7-4.6,5.7c-1.3,0-2.4-0.5-3.5-2.4c-1.1-2.2-1.1-4.8-1.1-7.8v-21.3h5.9V581
	c0,1.9,0,4,1.3,4c0.5,0,1.1-0.5,1.3-1.9c0.3-1.1,0.3-2.2,0.3-3.2v-17.8h5.9v31L419.1,593.1L419.1,593.1z"/>
<path class="st0" d="M445.7,567.5c0.5,0,1.3,0,1.9-0.8c0.3-0.8,0.5-1.9,0.5-2.7c0-3-1.3-3.5-2.4-3.5h-2.4v7H445.7z M445.7,583.9
	c0.5,0,1.3,0,1.9-0.8c0.5-0.5,0.8-1.9,0.8-3c0-1.3-0.3-2.7-1.1-3.2c-0.5-0.5-1.3-0.5-1.9-0.5H443v7.5H445.7z M437.1,551.6h10.2
	c1.6,0,3.2,0.3,4.6,2.2c1.3,1.9,2.2,5.4,2.2,8.9c0,4.3-1.3,8.1-3.5,9.2l0,0c2.4,0.8,4,4.6,4,9.4c0,3.5-0.5,7.5-2.2,9.7
	c-1.6,2.4-3.8,2.4-5.7,2.4h-9.4v-41.8H437.1z"/>
<path class="st0" d="M466.7,558.3l-2.4-3.5l-2.4,3.5h-3.8l6.2-10l6.2,10H466.7z M466.2,578.8c-1.3,0.3-3.8,1.1-3.8,4.8
	c0,1.9,0.5,3,1.6,3c2.2,0,2.4-3.8,2.4-7.3v-0.5H466.2z M466.7,593.1c-0.3-1.3-0.3-3-0.3-4.3c-1.1,3.5-3,4.8-5.1,4.8
	c-3,0-5.4-3.2-5.4-9.4c0-4.8,1.9-8.1,4-9.4c1.9-1.1,4-1.6,6.2-1.9v-0.3c0-2.7-0.3-3.8-1.9-3.8c-1.1,0-2.2,0.8-2.4,3.5l-5.4-1.1
	c0.8-7.8,4.6-9.7,8.1-9.7c1.9,0,4,0.5,5.7,2.7c2.2,3,1.9,6.7,1.9,11.3v10.8c0,2.4,0,4.6,0.5,6.7H466.7z"/>
<path class="st0" d="M473.2,570.2v-7.8h2.4l0.5-10l5.1-0.3v10.2h3v7.8h-3V581c0,2.2,0,4,1.3,4c0.5,0,1.1-0.3,1.6-0.5v8.6l-3.5,0.8
	c-1.6,0.5-3.2-0.5-4.3-3.2c-1.1-2.4-1.1-5.4-1.1-8.9v-11.6H473.2z"/>
<path class="st0" d="M492.6,559.2h-5.9v-8.1h5.9V559.2z M492.6,593.1h-5.9v-31h5.9V593.1z"/>
<path class="st0" d="M501.2,562.1v4.3l0,0c0.8-3.2,2.4-4.8,4.3-4.8c1.9,0,3.5,1.3,4.3,4.8c1.1-3.5,2.7-4.8,4.6-4.8
	c1.3,0,2.7,0.8,3.5,2.7c1.1,2.4,1.1,5.4,1.1,8.6v20.2h-5.9v-18.6c0-1.9,0-4.3-1.3-4.3c-1.6,0-1.6,3.2-1.6,5.7v17.2h-5.9v-18.6
	c0-1.9,0-4.3-1.3-4.3c-1.3,0-1.6,2.2-1.6,4.3v18.6h-5.9v-31H501.2z"/>
<path class="st0" d="M531.7,574c0-3-0.5-5.4-2.2-5.4s-2.2,2.4-2.2,5.4H531.7z M537.9,582.9c-0.8,7.5-4.3,11-7.8,11
	c-2.2,0-4.6-1.1-6.2-4s-2.4-7.3-2.4-11.6s0.8-8.6,2.2-11.6c1.6-3.2,4-4.8,6.2-4.8c5.1,0,8.4,6.7,8.4,17v1.6h-10.2
	c0,3.2,0.5,5.7,2.4,5.7c1.3,0,2.2-1.1,2.4-3.8L537.9,582.9z"/>
<path class="st0" d="M545.4,562.1v4.3l0,0c0.8-3.5,2.4-4.8,4.3-4.8c1.3,0,3.2,0.8,4,3.2c1.1,2.4,1.1,6.2,1.1,9.2v19.1h-5.9v-18.9
	c0-1.9,0-4.6-1.3-4.6c-1.6,0-1.9,3-1.9,5.4v17.8h-5.9v-31h5.7V562.1z"/>
<path class="st0" d="M556.2,570.2v-7.8h2.4l0.5-10l5.1-0.3v10.2h3v7.8h-3V581c0,2.2,0,4,1.3,4c0.5,0,1.1-0.3,1.6-0.5v8.6l-3.5,0.8
	c-1.6,0.5-3.2-0.5-4.3-3.2c-1.1-2.4-1.1-5.4-1.1-8.9v-11.6H556.2z"/>
</svg>
